<?xml version="1.0" standalone="no"?>
<!DOCTYPE svg PUBLIC "-//W3C//DTD SVG 1.1//EN" "http://www.w3.org/Graphics/SVG/1.1/DTD/svg11.dtd" >
<svg xmlns="http://www.w3.org/2000/svg" xmlns:xlink="http://www.w3.org/1999/xlink" version="1.1">
<metadata>
Created by FontForge 20170924 at Tue Jul 10 18:03:07 2012
 By www-data
Copyright (c) 2009 by Tomas Brousil. All rights reserved.
</metadata>
<defs>
<font id="Kulturista" horiz-adv-x="536" >
  <font-face 
    font-family="Kulturista"
    font-weight="400"
    font-stretch="normal"
    units-per-em="1000"
    panose-1="2 0 0 0 0 0 0 0 0 0"
    ascent="740"
    descent="-260"
    x-height="510"
    cap-height="700"
    bbox="-95 -210 1086 925"
    underline-thickness="50"
    underline-position="-100"
    stemh="72"
    stemv="83"
    unicode-range="U+0020-FB02"
  />
<missing-glyph horiz-adv-x="830" 
d="M100 0v630h630v-630h-630zM415 280l-230 -230h460zM185 580l230 -230l230 230h-460zM450 315l230 -230v460zM380 315l-230 230v-460z" />
    <glyph glyph-name="f_f" unicode="ff" horiz-adv-x="690" 
d="M365 0v67h90v376h-247v-376h90v-67h-263v67h95v376h-110v67h110v45c0 143 33 221 235 187v-64c-132 18 -157 -12 -157 -115v-53h247v45c0 143 33 221 235 187v-64c-132 18 -157 -12 -157 -115v-53h157v-67h-157v-376h95v-67h-263z" />
    <glyph glyph-name="f_i" unicode="fi" horiz-adv-x="668" 
d="M365 0v67h90v376h-247v-376h90v-67h-263v67h95v376h-110v67h110v45c0 143 33 221 235 187v-64c-132 18 -157 -12 -157 -115v-53h325v-443h95v-67h-263zM455 610v113h78v-113h-78z" />
    <glyph glyph-name="f_l" unicode="fl" horiz-adv-x="668" 
d="M365 0v67h90v614c-36 4 -68 6 -95 6c-116 0 -152 -33 -152 -124v-53h157v-67h-157v-376h90v-67h-263v67h95v376h-110v67h110v45c0 117 29 200 232 199c47 0 103 -5 171 -14v-673h95v-67h-263z" />
    <glyph glyph-name=".notdef" horiz-adv-x="830" 
d="M100 0v630h630v-630h-630zM415 280l-230 -230h460zM185 580l230 -230l230 230h-460zM450 315l230 -230v460zM380 315l-230 230v-460z" />
    <glyph glyph-name=".null" horiz-adv-x="0" 
 />
    <glyph glyph-name="CR" horiz-adv-x="0" 
 />
    <glyph glyph-name="space" unicode=" " horiz-adv-x="300" 
 />
    <glyph glyph-name="nbspace" unicode="&#xa0;" horiz-adv-x="300" 
 />
    <glyph glyph-name="A" unicode="A" horiz-adv-x="769" 
d="M10 0v72h87l239 628h101l239 -628h83v-72h-262v72h91l-56 143h-299l-55 -143h95v-72h-263zM383 617l-126 -330h252z" />
    <glyph glyph-name="B" unicode="B" horiz-adv-x="662" 
d="M145 72v556h-95v72h361c123 0 196 -62 196 -184c0 -79 -32 -132 -88 -161c66 -25 103 -83 103 -170c0 -122 -72 -185 -196 -185h-376v72h95zM228 315v-243h184c83 0 125 42 125 121s-41 122 -124 122h-185zM228 628v-241h169c84 0 125 42 125 121c0 78 -42 120 -124 120
h-170z" />
    <glyph glyph-name="C" unicode="C" horiz-adv-x="647" 
d="M509 475v4c0 100 -68 159 -179 159c-117 0 -187 -65 -187 -179v-218c0 -114 70 -179 186 -179c112 0 180 59 180 160v3h83v-3c0 -148 -101 -232 -263 -232c-166 0 -269 90 -269 251v218c0 157 99 251 260 251c88 0 156 -25 197 -78l10 68h65v-225h-83z" />
    <glyph glyph-name="D" unicode="D" horiz-adv-x="702" 
d="M554 248v205c0 112 -70 175 -187 175h-139v-556h137c119 0 189 64 189 176zM50 700h317c167 0 270 -88 270 -247v-205c0 -160 -103 -248 -272 -248h-315v72h95v556h-95v72z" />
    <glyph glyph-name="E" unicode="E" horiz-adv-x="637" 
d="M145 72v556h-95v72h547v-200h-83v128h-286v-241h259v-72h-259v-243h286v128h83v-200h-547v72h95z" />
    <glyph glyph-name="F" unicode="F" horiz-adv-x="637" 
d="M348 72v-72h-298v72h95v556h-95v72h537v-200h-83v128h-276v-254h249v-72h-249v-230h120z" />
    <glyph glyph-name="G" unicode="G" horiz-adv-x="654" 
d="M509 485v4c0 95 -68 149 -179 149c-117 0 -187 -65 -187 -179v-218c0 -114 70 -179 186 -179c112 0 180 59 180 160v62h-220v72h303v-356h-62l-10 73c-42 -54 -112 -83 -205 -83c-160 0 -255 88 -255 251v218c0 157 99 251 260 251c88 0 157 -23 197 -75l10 65h65v-215
h-83z" />
    <glyph glyph-name="H" unicode="H" horiz-adv-x="812" 
d="M667 628v-556h95v-72h-273v72h95v243h-356v-243h95v-72h-273v72h95v556h-95v72h273v-72h-95v-241h356v241h-95v72h273v-72h-95z" />
    <glyph glyph-name="I" unicode="I" horiz-adv-x="373" 
d="M228 628v-556h95v-72h-273v72h95v556h-95v72h273v-72h-95z" />
    <glyph glyph-name="J" unicode="J" horiz-adv-x="612" 
d="M265 62c94 0 149 52 149 142v424h-115v72h293v-72h-95v-424c0 -138 -88 -214 -232 -214c-142 0 -230 76 -230 214v24h83v-24c0 -90 55 -142 147 -142z" />
    <glyph glyph-name="K" unicode="K" horiz-adv-x="783" 
d="M442 628v72h282v-72h-82l-247 -231l262 -325h86v-72h-283v72h89l-216 272l-105 -99v-173h95v-72h-273v72h95v556h-95v72h273v-72h-95v-291l305 291h-91z" />
    <glyph glyph-name="L" unicode="L" horiz-adv-x="627" 
d="M348 700v-72h-120v-556h286v148h83v-220h-547v72h95v556h-95v72h298z" />
    <glyph glyph-name="M" unicode="M" horiz-adv-x="892" 
d="M228 537v-465h95v-72h-273v72h95v556h-95v72h175l221 -414l221 414h175v-72h-95v-556h95v-72h-272v72h95v465l-219 -409z" />
    <glyph glyph-name="N" unicode="N" horiz-adv-x="782" 
d="M228 549v-477h95v-72h-273v72h95v556h-95v72h173l361 -548v476h-95v72h273v-72h-95v-628h-78z" />
    <glyph glyph-name="O" unicode="O" horiz-adv-x="662" 
d="M519 241v218c0 114 -70 179 -187 179c-119 0 -189 -65 -189 -179v-218c0 -114 70 -179 187 -179c119 0 189 65 189 179zM602 459v-218c0 -161 -103 -251 -272 -251c-167 0 -270 90 -270 251v218c0 162 103 251 272 251c167 0 270 -89 270 -251z" />
    <glyph glyph-name="P" unicode="P" horiz-adv-x="662" 
d="M228 265v-193h120v-72h-298v72h95v556h-95v72h358c136 0 224 -67 224 -217c0 -151 -88 -218 -224 -218h-180zM228 628v-291h178c86 0 141 43 141 146c0 102 -56 145 -141 145h-178z" />
    <glyph glyph-name="Q" unicode="Q" horiz-adv-x="652" 
d="M522 -200l-190 190h-2c-167 0 -270 90 -270 251v218c0 162 103 251 272 251c167 0 270 -89 270 -251v-218c0 -126 -63 -208 -170 -238l149 -145zM519 241v218c0 114 -70 179 -187 179c-119 0 -189 -65 -189 -179v-218c0 -114 70 -179 187 -179c119 0 189 65 189 179z" />
    <glyph glyph-name="R" unicode="R" horiz-adv-x="697" 
d="M50 628v72h358c136 0 224 -66 224 -206c0 -119 -64 -186 -167 -203l127 -219h100v-72h-154l-166 287h-144v-215h105v-72h-283v72h95v556h-95zM228 628v-269h178c86 0 141 43 141 135s-56 134 -141 134h-178z" />
    <glyph glyph-name="S" unicode="S" horiz-adv-x="627" 
d="M143 213c2 -97 70 -151 178 -151c100 0 161 42 161 123c0 91 -69 111 -176 130c-147 26 -238 71 -238 207c0 123 85 188 223 188c75 0 149 -21 194 -74l10 64h65v-212h-83c-2 97 -63 150 -170 150c-101 0 -154 -41 -154 -116c0 -89 67 -112 168 -130
c150 -26 246 -70 246 -209c0 -128 -92 -193 -230 -193c-77 0 -155 22 -202 75l-10 -65h-65v213h83z" />
    <glyph glyph-name="T" unicode="T" horiz-adv-x="665" 
d="M176 0v72h115v556h-178v-128h-83v200h605v-200h-83v128h-178v-556h115v-72h-313z" />
    <glyph glyph-name="U" unicode="U" horiz-adv-x="752" 
d="M20 628v72h273v-72h-95v-396c0 -108 67 -170 177 -170c112 0 179 62 179 170v396h-95v72h273v-72h-95v-396c0 -156 -100 -242 -262 -242c-160 0 -260 86 -260 242v396h-95z" />
    <glyph glyph-name="V" unicode="V" horiz-adv-x="764" 
d="M384 91l203 537h-95v72h262v-72h-87l-238 -628h-97l-238 628h-84v72h263v-72h-91z" />
    <glyph glyph-name="W" unicode="W" horiz-adv-x="1021" 
d="M749 628v72h262v-72h-88l-170 -628h-94l-150 550l-150 -550h-94l-171 628h-84v72h263v-72h-97l139 -522l155 594h80l155 -594l139 522h-95z" />
    <glyph glyph-name="X" unicode="X" horiz-adv-x="745" 
d="M710 700v-72h-85l-205 -276l205 -280h85v-72h-268v72h85l-157 225l-157 -225h90v-72h-268v72h85l204 277l-204 279h-85v72h268v-72h-85l156 -224l158 224h-90v72h268z" />
    <glyph glyph-name="Y" unicode="Y" horiz-adv-x="705" 
d="M705 700v-72h-82l-229 -360v-196h115v-72h-312v72h115v196l-229 360h-83v72h268v-72h-88l177 -282l178 282h-97v72h267z" />
    <glyph glyph-name="Z" unicode="Z" horiz-adv-x="577" 
d="M35 72l409 556h-326v-128h-83v200h507v-72l-409 -556h326v128h83v-200h-507v72z" />
    <glyph glyph-name="AE" unicode="&#xc6;" horiz-adv-x="1063" 
d="M477 0v72h95v143h-287l-107 -143h85v-72h-263v72h86l399 556h-90v72h628v-200h-82v128h-287v-241h259v-72h-259v-243h287v128h82v-200h-546zM323 287h249v347z" />
    <glyph glyph-name="Eng" unicode="&#x14a;" horiz-adv-x="782" 
d="M228 549v-477h95v-72h-273v72h95v556h-95v72h173l361 -548v476h-95v72h273v-72h-95v-659c0 -123 -38 -201 -195 -167v64c88 -18 112 12 112 95v47z" />
    <glyph glyph-name="Eth" unicode="&#xd0;" horiz-adv-x="702" 
d="M75 322v57h70v249h-95v72h317c167 0 270 -88 270 -247v-205c0 -160 -103 -248 -272 -248h-315v72h95v250h-70zM554 248v205c0 112 -70 175 -187 175h-139v-249h149v-57h-149v-250h137c119 0 189 64 189 176z" />
    <glyph glyph-name="IJ" unicode="&#x132;" horiz-adv-x="984" 
d="M228 628v-556h95v-72h-273v72h95v556h-95v72h273v-72h-95zM637 62c94 0 149 52 149 142v424h-115v72h293v-72h-95v-424c0 -138 -88 -214 -232 -214c-142 0 -230 76 -230 214v24h83v-24c0 -90 55 -142 147 -142z" />
    <glyph glyph-name="OE" unicode="&#x152;" horiz-adv-x="1021" 
d="M519 0v62c-45 -47 -112 -72 -194 -72c-161 0 -265 90 -265 251v218c0 162 104 251 266 251c81 0 148 -25 193 -72v62h452v-200h-83v128h-286v-241h259v-72h-259v-243h286v128h83v-200h-452zM519 241v218c0 114 -70 179 -187 179c-119 0 -189 -65 -189 -179v-218
c0 -114 70 -179 187 -179c119 0 189 65 189 179z" />
    <glyph glyph-name="Oslash" unicode="&#xd8;" horiz-adv-x="662" 
d="M602 459v-218c0 -161 -103 -251 -272 -251c-60 0 -111 11 -153 33l-65 -113l-53 31l68 118c-43 43 -67 104 -67 182v218c0 162 103 251 272 251c59 0 110 -11 152 -33l65 113l53 -31l-68 -118c43 -43 68 -104 68 -182zM519 241v218c0 43 -10 79 -29 107l-274 -476
c30 -19 68 -28 114 -28c119 0 189 65 189 179zM143 241c0 -43 10 -78 28 -106l274 475c-30 18 -68 28 -113 28c-119 0 -189 -65 -189 -179v-218z" />
    <glyph glyph-name="Thorn" unicode="&#xde;" horiz-adv-x="662" 
d="M228 700v-132h180c136 0 224 -67 224 -218c0 -150 -88 -218 -224 -218h-180v-132h-178v72h95v556h-95v72h178zM228 496v-292h178c86 0 141 44 141 146c0 103 -56 146 -141 146h-178z" />
    <glyph glyph-name="Aacute" unicode="&#xc1;" horiz-adv-x="769" 
d="M10 0v72h87l239 628h101l239 -628h83v-72h-262v72h91l-56 143h-299l-55 -143h95v-72h-263zM383 617l-126 -330h252zM396 740h-68l92 145h86z" />
    <glyph glyph-name="Abreve" unicode="&#x102;" horiz-adv-x="769" 
d="M10 0v72h87l239 628h101l239 -628h83v-72h-262v72h91l-56 143h-299l-55 -143h95v-72h-263zM383 617l-126 -330h252zM246 885h54c0 -66 33 -89 88 -89c54 0 86 23 86 89h54c0 -103 -50 -147 -140 -147c-91 0 -142 44 -142 147z" />
    <glyph glyph-name="Acircumflex" unicode="&#xc2;" horiz-adv-x="769" 
d="M10 0v72h87l239 628h101l239 -628h83v-72h-262v72h91l-56 143h-299l-55 -143h95v-72h-263zM383 617l-126 -330h252zM430 885l113 -145h-73l-84 99l-84 -99h-71l113 145h86z" />
    <glyph glyph-name="Adieresis" unicode="&#xc4;" horiz-adv-x="769" 
d="M10 0v72h87l239 628h101l239 -628h83v-72h-262v72h91l-56 143h-299l-55 -143h95v-72h-263zM383 617l-126 -330h252zM235 758v107h68v-107h-68zM470 758v107h68v-107h-68z" />
    <glyph glyph-name="Agrave" unicode="&#xc0;" horiz-adv-x="769" 
d="M10 0v72h87l239 628h101l239 -628h83v-72h-262v72h91l-56 143h-299l-55 -143h95v-72h-263zM383 617l-126 -330h252zM445 740h-67l-110 145h86z" />
    <glyph glyph-name="Amacron" unicode="&#x100;" horiz-adv-x="769" 
d="M10 0v72h87l239 628h101l239 -628h83v-72h-262v72h91l-56 143h-299l-55 -143h95v-72h-263zM383 617l-126 -330h252zM235 774v57h302v-57h-302z" />
    <glyph glyph-name="Aogonek" unicode="&#x104;" horiz-adv-x="769" 
d="M10 0v72h87l239 628h101l239 -628h83v-72h-92c-26 -34 -40 -68 -40 -99c0 -29 19 -48 54 -48c12 0 24 2 38 5v-51c-23 -8 -44 -11 -63 -11c-62 0 -103 34 -103 86c0 33 17 76 53 118h-109v72h91l-56 143h-299l-55 -143h95v-72h-263zM383 617l-126 -330h252z" />
    <glyph glyph-name="Aring" unicode="&#xc5;" horiz-adv-x="769" 
d="M10 0v72h87l239 628h101l239 -628h83v-72h-262v72h91l-56 143h-299l-55 -143h95v-72h-263zM383 617l-126 -330h252zM285 814c0 57 41 96 101 96s102 -39 102 -96s-42 -96 -102 -96s-101 39 -101 96zM335 814c0 -34 19 -55 51 -55s51 21 51 55s-19 55 -51 55
s-51 -21 -51 -55z" />
    <glyph glyph-name="Atilde" unicode="&#xc3;" horiz-adv-x="769" 
d="M10 0v72h87l239 628h101l239 -628h83v-72h-262v72h91l-56 143h-299l-55 -143h95v-72h-263zM383 617l-126 -330h252zM247 757l-44 26c40 77 75 99 110 99c60 0 114 -75 151 -75c16 0 35 18 63 67l43 -26c-39 -78 -75 -99 -108 -99c-61 0 -115 74 -151 74
c-19 0 -37 -17 -64 -66z" />
    <glyph glyph-name="Cacute" unicode="&#x106;" horiz-adv-x="647" 
d="M509 475v4c0 100 -68 159 -179 159c-117 0 -187 -65 -187 -179v-218c0 -114 70 -179 186 -179c112 0 180 59 180 160v3h83v-3c0 -148 -101 -232 -263 -232c-166 0 -269 90 -269 251v218c0 157 99 251 260 251c88 0 156 -25 197 -78l10 68h65v-225h-83zM335 740h-68
l92 145h86z" />
    <glyph glyph-name="Ccaron" unicode="&#x10c;" horiz-adv-x="647" 
d="M509 475v4c0 100 -68 159 -179 159c-117 0 -187 -65 -187 -179v-218c0 -114 70 -179 186 -179c112 0 180 59 180 160v3h83v-3c0 -148 -101 -232 -263 -232c-166 0 -269 90 -269 251v218c0 157 99 251 260 251c88 0 156 -25 197 -78l10 68h65v-225h-83zM283 740l-113 145
h73l84 -98l84 98h71l-113 -145h-86z" />
    <glyph glyph-name="Ccedilla" unicode="&#xc7;" horiz-adv-x="647" 
d="M509 475v4c0 100 -68 159 -179 159c-117 0 -187 -65 -187 -179v-218c0 -114 70 -179 186 -179c112 0 180 59 180 160v3h83v-3c0 -148 -101 -232 -263 -232c-166 0 -269 90 -269 251v218c0 157 99 251 260 251c88 0 156 -25 197 -78l10 68h65v-225h-83zM258 -199l-12 46
c69 -7 108 -4 108 32c0 35 -39 38 -108 31l12 45c97 13 163 -11 163 -77c0 -67 -66 -91 -163 -77z" />
    <glyph glyph-name="Ccircumflex" unicode="&#x108;" horiz-adv-x="647" 
d="M509 475v4c0 100 -68 159 -179 159c-117 0 -187 -65 -187 -179v-218c0 -114 70 -179 186 -179c112 0 180 59 180 160v3h83v-3c0 -148 -101 -232 -263 -232c-166 0 -269 90 -269 251v218c0 157 99 251 260 251c88 0 156 -25 197 -78l10 68h65v-225h-83zM369 885l113 -145
h-73l-84 99l-84 -99h-71l113 145h86z" />
    <glyph glyph-name="Cdotaccent" unicode="&#x10a;" horiz-adv-x="647" 
d="M287 755v113h78v-113h-78zM509 475v4c0 100 -68 159 -179 159c-117 0 -187 -65 -187 -179v-218c0 -114 70 -179 186 -179c112 0 180 59 180 160v3h83v-3c0 -148 -101 -232 -263 -232c-166 0 -269 90 -269 251v218c0 157 99 251 260 251c88 0 156 -25 197 -78l10 68h65
v-225h-83z" />
    <glyph glyph-name="Dcaron" unicode="&#x10e;" horiz-adv-x="702" 
d="M290 740l-113 145h73l84 -98l84 98h71l-113 -145h-86zM554 248v205c0 112 -70 175 -187 175h-139v-556h137c119 0 189 64 189 176zM50 700h317c167 0 270 -88 270 -247v-205c0 -160 -103 -248 -272 -248h-315v72h95v556h-95v72z" />
    <glyph glyph-name="Dcroat" unicode="&#x110;" horiz-adv-x="702" 
d="M75 322v57h70v249h-95v72h317c167 0 270 -88 270 -247v-205c0 -160 -103 -248 -272 -248h-315v72h95v250h-70zM554 248v205c0 112 -70 175 -187 175h-139v-249h149v-57h-149v-250h137c119 0 189 64 189 176z" />
    <glyph glyph-name="Eacute" unicode="&#xc9;" horiz-adv-x="637" 
d="M342 740h-68l92 145h86zM145 72v556h-95v72h547v-200h-83v128h-286v-241h259v-72h-259v-243h286v128h83v-200h-547v72h95z" />
    <glyph glyph-name="Ebreve" unicode="&#x114;" horiz-adv-x="637" 
d="M192 885h54c0 -66 33 -89 88 -89c54 0 86 23 86 89h54c0 -103 -50 -147 -140 -147c-91 0 -142 44 -142 147zM145 72v556h-95v72h547v-200h-83v128h-286v-241h259v-72h-259v-243h286v128h83v-200h-547v72h95z" />
    <glyph glyph-name="Ecaron" unicode="&#x11a;" horiz-adv-x="637" 
d="M290 740l-113 145h73l84 -98l84 98h71l-113 -145h-86zM145 72v556h-95v72h547v-200h-83v128h-286v-241h259v-72h-259v-243h286v128h83v-200h-547v72h95z" />
    <glyph glyph-name="Ecircumflex" unicode="&#xca;" horiz-adv-x="637" 
d="M145 72v556h-95v72h547v-200h-83v128h-286v-241h259v-72h-259v-243h286v128h83v-200h-547v72h95zM376 885l113 -145h-73l-84 99l-84 -99h-71l113 145h86z" />
    <glyph glyph-name="Edieresis" unicode="&#xcb;" horiz-adv-x="637" 
d="M182 758v107h68v-107h-68zM417 758v107h68v-107h-68zM145 72v556h-95v72h547v-200h-83v128h-286v-241h259v-72h-259v-243h286v128h83v-200h-547v72h95z" />
    <glyph glyph-name="Edotaccent" unicode="&#x116;" horiz-adv-x="637" 
d="M294 755v113h78v-113h-78zM145 72v556h-95v72h547v-200h-83v128h-286v-241h259v-72h-259v-243h286v128h83v-200h-547v72h95z" />
    <glyph glyph-name="Egrave" unicode="&#xc8;" horiz-adv-x="637" 
d="M392 740h-67l-110 145h86zM145 72v556h-95v72h547v-200h-83v128h-286v-241h259v-72h-259v-243h286v128h83v-200h-547v72h95z" />
    <glyph glyph-name="Emacron" unicode="&#x112;" horiz-adv-x="637" 
d="M182 774v57h302v-57h-302zM145 72v556h-95v72h547v-200h-83v128h-286v-241h259v-72h-259v-243h286v128h83v-200h-547v72h95z" />
    <glyph glyph-name="Eogonek" unicode="&#x118;" horiz-adv-x="637" 
d="M145 72v556h-95v72h547v-200h-83v128h-286v-241h259v-72h-259v-243h286v128h83v-200h-53c-26 -34 -40 -68 -40 -99c0 -29 19 -48 54 -48c12 0 24 2 38 5v-51c-23 -8 -44 -11 -63 -11c-62 0 -103 34 -103 86c0 33 17 76 53 118h-433v72h95z" />
    <glyph glyph-name="Gbreve" unicode="&#x11e;" horiz-adv-x="654" 
d="M185 885h54c0 -66 33 -89 88 -89c54 0 86 23 86 89h54c0 -103 -50 -147 -140 -147c-91 0 -142 44 -142 147zM509 485v4c0 95 -68 149 -179 149c-117 0 -187 -65 -187 -179v-218c0 -114 70 -179 186 -179c112 0 180 59 180 160v62h-220v72h303v-356h-62l-10 73
c-42 -54 -112 -83 -205 -83c-160 0 -255 88 -255 251v218c0 157 99 251 260 251c88 0 157 -23 197 -75l10 65h65v-215h-83z" />
    <glyph glyph-name="Gcircumflex" unicode="&#x11c;" horiz-adv-x="654" 
d="M509 485v4c0 95 -68 149 -179 149c-117 0 -187 -65 -187 -179v-218c0 -114 70 -179 186 -179c112 0 180 59 180 160v62h-220v72h303v-356h-62l-10 73c-42 -54 -112 -83 -205 -83c-160 0 -255 88 -255 251v218c0 157 99 251 260 251c88 0 157 -23 197 -75l10 65h65v-215
h-83zM369 885l113 -145h-73l-84 99l-84 -99h-71l113 145h86z" />
    <glyph glyph-name="Gcommaaccent" unicode="&#x122;" horiz-adv-x="654" 
d="M285 -200l10 140h72l-27 -140h-55zM509 485v4c0 95 -68 149 -179 149c-117 0 -187 -65 -187 -179v-218c0 -114 70 -179 186 -179c112 0 180 59 180 160v62h-220v72h303v-356h-62l-10 73c-42 -54 -112 -83 -205 -83c-160 0 -255 88 -255 251v218c0 157 99 251 260 251
c88 0 157 -23 197 -75l10 65h65v-215h-83z" />
    <glyph glyph-name="Gdotaccent" unicode="&#x120;" horiz-adv-x="654" 
d="M287 755v113h78v-113h-78zM509 485v4c0 95 -68 149 -179 149c-117 0 -187 -65 -187 -179v-218c0 -114 70 -179 186 -179c112 0 180 59 180 160v62h-220v72h303v-356h-62l-10 73c-42 -54 -112 -83 -205 -83c-160 0 -255 88 -255 251v218c0 157 99 251 260 251
c88 0 157 -23 197 -75l10 65h65v-215h-83z" />
    <glyph glyph-name="Hbar" unicode="&#x126;" horiz-adv-x="812" 
d="M667 628v-96h80v-57h-80v-403h95v-72h-273v72h95v228h-356v-228h95v-72h-273v72h95v403h-80v57h80v96h-95v72h273v-72h-95v-96h356v96h-95v72h273v-72h-95zM228 372h356v103h-356v-103z" />
    <glyph glyph-name="Hcircumflex" unicode="&#x124;" horiz-adv-x="812" 
d="M667 628v-556h95v-72h-273v72h95v243h-356v-243h95v-72h-273v72h95v556h-95v72h273v-72h-95v-241h356v241h-95v72h273v-72h-95zM449 885l113 -145h-73l-84 99l-84 -99h-71l113 145h86z" />
    <glyph glyph-name="Iacute" unicode="&#xcd;" horiz-adv-x="373" 
d="M228 628v-556h95v-72h-273v72h95v556h-95v72h273v-72h-95zM215 740h-68l92 145h86z" />
    <glyph glyph-name="Ibreve" unicode="&#x12c;" horiz-adv-x="373" 
d="M228 628v-556h95v-72h-273v72h95v556h-95v72h273v-72h-95zM45 885h54c0 -66 33 -89 88 -89c54 0 86 23 86 89h54c0 -103 -50 -147 -140 -147c-91 0 -142 44 -142 147z" />
    <glyph glyph-name="Icircumflex" unicode="&#xce;" horiz-adv-x="373" 
d="M228 628v-556h95v-72h-273v72h95v556h-95v72h273v-72h-95zM229 885l113 -145h-73l-84 99l-84 -99h-71l113 145h86z" />
    <glyph glyph-name="Idieresis" unicode="&#xcf;" horiz-adv-x="373" 
d="M60 758v107h68v-107h-68zM245 758v107h68v-107h-68zM228 628v-556h95v-72h-273v72h95v556h-95v72h273v-72h-95z" />
    <glyph glyph-name="Idotaccent" unicode="&#x130;" horiz-adv-x="373" 
d="M228 628v-556h95v-72h-273v72h95v556h-95v72h273v-72h-95zM147 755v113h78v-113h-78z" />
    <glyph glyph-name="Igrave" unicode="&#xcc;" horiz-adv-x="373" 
d="M228 628v-556h95v-72h-273v72h95v556h-95v72h273v-72h-95zM225 740h-67l-110 145h86z" />
    <glyph glyph-name="Imacron" unicode="&#x12a;" horiz-adv-x="373" 
d="M55 774v57h262v-57h-262zM228 628v-556h95v-72h-273v72h95v556h-95v72h273v-72h-95z" />
    <glyph glyph-name="Iogonek" unicode="&#x12e;" horiz-adv-x="373" 
d="M228 628v-556h95v-72h-96c-26 -34 -40 -68 -40 -99c0 -29 19 -48 54 -48c12 0 24 2 38 5v-51c-23 -8 -44 -11 -63 -11c-62 0 -103 34 -103 86c0 33 17 76 53 118h-116v72h95v556h-95v72h273v-72h-95z" />
    <glyph glyph-name="Itilde" unicode="&#x128;" horiz-adv-x="373" 
d="M228 628v-556h95v-72h-273v72h95v556h-95v72h273v-72h-95zM59 757l-44 26c40 77 72 99 107 99c61 0 97 -75 131 -75c17 0 33 18 61 67l43 -26c-39 -78 -72 -99 -107 -99c-60 0 -96 74 -131 74c-16 0 -33 -17 -60 -66z" />
    <glyph glyph-name="Jcircumflex" unicode="&#x134;" horiz-adv-x="612" 
d="M265 62c94 0 149 52 149 142v424h-115v72h293v-72h-95v-424c0 -138 -88 -214 -232 -214c-142 0 -230 76 -230 214v24h83v-24c0 -90 55 -142 147 -142zM500 885l113 -145h-73l-84 99l-84 -99h-71l113 145h86z" />
    <glyph glyph-name="Kcommaaccent" unicode="&#x136;" horiz-adv-x="783" 
d="M331 -200l10 140h72l-27 -140h-55zM442 628v72h282v-72h-82l-247 -231l262 -325h86v-72h-283v72h89l-216 272l-105 -99v-173h95v-72h-273v72h95v556h-95v72h273v-72h-95v-291l305 291h-91z" />
    <glyph glyph-name="Lacute" unicode="&#x139;" horiz-adv-x="627" 
d="M213 740h-68l92 145h86zM348 700v-72h-120v-556h286v148h83v-220h-547v72h95v556h-95v72h298z" />
    <glyph glyph-name="Lcaron" unicode="&#x13d;" horiz-adv-x="627" 
d="M378 580l17 200h73l-43 -200h-47zM348 700v-72h-120v-556h286v148h83v-220h-547v72h95v556h-95v72h298z" />
    <glyph glyph-name="Lcommaaccent" unicode="&#x13b;" horiz-adv-x="627" 
d="M305 -200l10 140h72l-27 -140h-55zM348 700v-72h-120v-556h286v148h83v-220h-547v72h95v556h-95v72h298z" />
    <glyph glyph-name="Ldot" unicode="&#x13f;" horiz-adv-x="627" 
d="M348 700v-72h-120v-556h286v148h83v-220h-547v72h95v556h-95v72h298zM451 314v113h78v-113h-78z" />
    <glyph glyph-name="Lslash" unicode="&#x141;" horiz-adv-x="647" 
d="M368 700v-72h-120v-231l165 55v-67l-165 -56v-257h286v148h83v-220h-547v72h95v229l-90 -30v68l90 30v259h-95v72h298z" />
    <glyph glyph-name="Nacute" unicode="&#x143;" horiz-adv-x="782" 
d="M415 740h-68l92 145h86zM228 549v-477h95v-72h-273v72h95v556h-95v72h173l361 -548v476h-95v72h273v-72h-95v-628h-78z" />
    <glyph glyph-name="Ncaron" unicode="&#x147;" horiz-adv-x="782" 
d="M363 740l-113 145h73l84 -98l84 98h71l-113 -145h-86zM228 549v-477h95v-72h-273v72h95v556h-95v72h173l361 -548v476h-95v72h273v-72h-95v-628h-78z" />
    <glyph glyph-name="Ncommaaccent" unicode="&#x145;" horiz-adv-x="782" 
d="M365 -200l10 140h72l-27 -140h-55zM228 549v-477h95v-72h-273v72h95v556h-95v72h173l361 -548v476h-95v72h273v-72h-95v-628h-78z" />
    <glyph glyph-name="Ntilde" unicode="&#xd1;" horiz-adv-x="782" 
d="M266 757l-44 26c40 77 75 99 110 99c60 0 114 -75 151 -75c16 0 35 18 63 67l43 -26c-39 -78 -75 -99 -108 -99c-61 0 -115 74 -151 74c-19 0 -37 -17 -64 -66zM228 549v-477h95v-72h-273v72h95v556h-95v72h173l361 -548v476h-95v72h273v-72h-95v-628h-78z" />
    <glyph glyph-name="Oacute" unicode="&#xd3;" horiz-adv-x="662" 
d="M335 740h-68l92 145h86zM519 241v218c0 114 -70 179 -187 179c-119 0 -189 -65 -189 -179v-218c0 -114 70 -179 187 -179c119 0 189 65 189 179zM602 459v-218c0 -161 -103 -251 -272 -251c-167 0 -270 90 -270 251v218c0 162 103 251 272 251c167 0 270 -89 270 -251z
" />
    <glyph glyph-name="Obreve" unicode="&#x14e;" horiz-adv-x="662" 
d="M185 885h54c0 -66 33 -89 88 -89c54 0 86 23 86 89h54c0 -103 -50 -147 -140 -147c-91 0 -142 44 -142 147zM519 241v218c0 114 -70 179 -187 179c-119 0 -189 -65 -189 -179v-218c0 -114 70 -179 187 -179c119 0 189 65 189 179zM602 459v-218
c0 -161 -103 -251 -272 -251c-167 0 -270 90 -270 251v218c0 162 103 251 272 251c167 0 270 -89 270 -251z" />
    <glyph glyph-name="Ocircumflex" unicode="&#xd4;" horiz-adv-x="662" 
d="M519 241v218c0 114 -70 179 -187 179c-119 0 -189 -65 -189 -179v-218c0 -114 70 -179 187 -179c119 0 189 65 189 179zM602 459v-218c0 -161 -103 -251 -272 -251c-167 0 -270 90 -270 251v218c0 162 103 251 272 251c167 0 270 -89 270 -251zM369 885l113 -145h-73
l-84 99l-84 -99h-71l113 145h86z" />
    <glyph glyph-name="Odieresis" unicode="&#xd6;" horiz-adv-x="662" 
d="M174 758v107h68v-107h-68zM409 758v107h68v-107h-68zM519 241v218c0 114 -70 179 -187 179c-119 0 -189 -65 -189 -179v-218c0 -114 70 -179 187 -179c119 0 189 65 189 179zM602 459v-218c0 -161 -103 -251 -272 -251c-167 0 -270 90 -270 251v218
c0 162 103 251 272 251c167 0 270 -89 270 -251z" />
    <glyph glyph-name="Ograve" unicode="&#xd2;" horiz-adv-x="662" 
d="M384 740h-67l-110 145h86zM519 241v218c0 114 -70 179 -187 179c-119 0 -189 -65 -189 -179v-218c0 -114 70 -179 187 -179c119 0 189 65 189 179zM602 459v-218c0 -161 -103 -251 -272 -251c-167 0 -270 90 -270 251v218c0 162 103 251 272 251c167 0 270 -89 270 -251z
" />
    <glyph glyph-name="Ohungarumlaut" unicode="&#x150;" horiz-adv-x="662" 
d="M519 241v218c0 114 -70 179 -187 179c-119 0 -189 -65 -189 -179v-218c0 -114 70 -179 187 -179c119 0 189 65 189 179zM602 459v-218c0 -161 -103 -251 -272 -251c-167 0 -270 90 -270 251v218c0 162 103 251 272 251c167 0 270 -89 270 -251zM227 740h-63l101 145h82z
M428 740h-63l101 145h82z" />
    <glyph glyph-name="Omacron" unicode="&#x14c;" horiz-adv-x="662" 
d="M174 774v57h302v-57h-302zM519 241v218c0 114 -70 179 -187 179c-119 0 -189 -65 -189 -179v-218c0 -114 70 -179 187 -179c119 0 189 65 189 179zM602 459v-218c0 -161 -103 -251 -272 -251c-167 0 -270 90 -270 251v218c0 162 103 251 272 251c167 0 270 -89 270 -251z
" />
    <glyph glyph-name="Otilde" unicode="&#xd5;" horiz-adv-x="662" 
d="M191 757l-44 26c40 77 75 99 110 99c60 0 114 -75 151 -75c16 0 35 18 63 67l43 -26c-39 -78 -75 -99 -108 -99c-61 0 -115 74 -151 74c-19 0 -37 -17 -64 -66zM519 241v218c0 114 -70 179 -187 179c-119 0 -189 -65 -189 -179v-218c0 -114 70 -179 187 -179
c119 0 189 65 189 179zM602 459v-218c0 -161 -103 -251 -272 -251c-167 0 -270 90 -270 251v218c0 162 103 251 272 251c167 0 270 -89 270 -251z" />
    <glyph glyph-name="Racute" unicode="&#x154;" horiz-adv-x="697" 
d="M50 628v72h358c136 0 224 -66 224 -206c0 -119 -64 -186 -167 -203l127 -219h100v-72h-154l-166 287h-144v-215h105v-72h-283v72h95v556h-95zM228 628v-269h178c86 0 141 43 141 135s-56 134 -141 134h-178zM337 740h-68l92 145h86z" />
    <glyph glyph-name="Rcaron" unicode="&#x158;" horiz-adv-x="697" 
d="M295 740l-113 145h73l84 -98l84 98h71l-113 -145h-86zM50 628v72h358c136 0 224 -66 224 -206c0 -119 -64 -186 -167 -203l127 -219h100v-72h-154l-166 287h-144v-215h105v-72h-283v72h95v556h-95zM228 628v-269h178c86 0 141 43 141 135s-56 134 -141 134h-178z" />
    <glyph glyph-name="Rcommaaccent" unicode="&#x156;" horiz-adv-x="697" 
d="M332 -200l10 140h72l-27 -140h-55zM50 628v72h358c136 0 224 -66 224 -206c0 -119 -64 -186 -167 -203l127 -219h100v-72h-154l-166 287h-144v-215h105v-72h-283v72h95v556h-95zM228 628v-269h178c86 0 141 43 141 135s-56 134 -141 134h-178z" />
    <glyph glyph-name="Sacute" unicode="&#x15a;" horiz-adv-x="627" 
d="M143 213c2 -97 70 -151 178 -151c100 0 161 42 161 123c0 91 -69 111 -176 130c-147 26 -238 71 -238 207c0 123 85 188 223 188c75 0 149 -21 194 -74l10 64h65v-212h-83c-2 97 -63 150 -170 150c-101 0 -154 -41 -154 -116c0 -89 67 -112 168 -130
c150 -26 246 -70 246 -209c0 -128 -92 -193 -230 -193c-77 0 -155 22 -202 75l-10 -65h-65v213h83zM322 740h-68l92 145h86z" />
    <glyph glyph-name="Scaron" unicode="&#x160;" horiz-adv-x="627" 
d="M143 213c2 -97 70 -151 178 -151c100 0 161 42 161 123c0 91 -69 111 -176 130c-147 26 -238 71 -238 207c0 123 85 188 223 188c75 0 149 -21 194 -74l10 64h65v-212h-83c-2 97 -63 150 -170 150c-101 0 -154 -41 -154 -116c0 -89 67 -112 168 -130
c150 -26 246 -70 246 -209c0 -128 -92 -193 -230 -193c-77 0 -155 22 -202 75l-10 -65h-65v213h83zM270 740l-113 145h73l84 -98l84 98h71l-113 -145h-86z" />
    <glyph glyph-name="Scedilla" unicode="&#x15e;" horiz-adv-x="627" 
d="M143 213c2 -97 70 -151 178 -151c100 0 161 42 161 123c0 91 -69 111 -176 130c-147 26 -238 71 -238 207c0 123 85 188 223 188c75 0 149 -21 194 -74l10 64h65v-212h-83c-2 97 -63 150 -170 150c-101 0 -154 -41 -154 -116c0 -89 67 -112 168 -130
c150 -26 246 -70 246 -209c0 -128 -92 -193 -230 -193c-77 0 -155 22 -202 75l-10 -65h-65v213h83zM248 -199l-12 46c69 -7 108 -4 108 32c0 35 -39 38 -108 31l12 45c97 13 163 -11 163 -77c0 -67 -66 -91 -163 -77z" />
    <glyph glyph-name="Scircumflex" unicode="&#x15c;" horiz-adv-x="627" 
d="M143 213c2 -97 70 -151 178 -151c100 0 161 42 161 123c0 91 -69 111 -176 130c-147 26 -238 71 -238 207c0 123 85 188 223 188c75 0 149 -21 194 -74l10 64h65v-212h-83c-2 97 -63 150 -170 150c-101 0 -154 -41 -154 -116c0 -89 67 -112 168 -130
c150 -26 246 -70 246 -209c0 -128 -92 -193 -230 -193c-77 0 -155 22 -202 75l-10 -65h-65v213h83zM356 885l113 -145h-73l-84 99l-84 -99h-71l113 145h86z" />
    <glyph glyph-name="uni0218" unicode="&#x218;" horiz-adv-x="627" 
d="M272 -200l10 140h72l-27 -140h-55zM143 213c2 -97 70 -151 178 -151c100 0 161 42 161 123c0 91 -69 111 -176 130c-147 26 -238 71 -238 207c0 123 85 188 223 188c75 0 149 -21 194 -74l10 64h65v-212h-83c-2 97 -63 150 -170 150c-101 0 -154 -41 -154 -116
c0 -89 67 -112 168 -130c150 -26 246 -70 246 -209c0 -128 -92 -193 -230 -193c-77 0 -155 22 -202 75l-10 -65h-65v213h83z" />
    <glyph glyph-name="Tbar" unicode="&#x166;" horiz-adv-x="665" 
d="M196 312v57h95v259h-178v-128h-83v200h605v-200h-83v128h-178v-259h94v-57h-94v-240h115v-72h-313v72h115v240h-95z" />
    <glyph glyph-name="Tcaron" unicode="&#x164;" horiz-adv-x="665" 
d="M289 740l-113 145h73l84 -98l84 98h71l-113 -145h-86zM176 0v72h115v556h-178v-128h-83v200h605v-200h-83v128h-178v-556h115v-72h-313z" />
    <glyph glyph-name="uni0162" unicode="&#x162;" horiz-adv-x="665" 
d="M176 0v72h115v556h-178v-128h-83v200h605v-200h-83v128h-178v-556h115v-72h-313zM257 -199l-12 46c69 -7 108 -4 108 32c0 35 -39 38 -108 31l12 45c97 13 163 -11 163 -77c0 -67 -66 -91 -163 -77z" />
    <glyph glyph-name="uni021A" unicode="&#x21a;" horiz-adv-x="665" 
d="M291 -200l10 140h72l-27 -140h-55zM176 0v72h115v556h-178v-128h-83v200h605v-200h-83v128h-178v-556h115v-72h-313z" />
    <glyph glyph-name="Uacute" unicode="&#xda;" horiz-adv-x="752" 
d="M385 740h-68l92 145h86zM20 628v72h273v-72h-95v-396c0 -108 67 -170 177 -170c112 0 179 62 179 170v396h-95v72h273v-72h-95v-396c0 -156 -100 -242 -262 -242c-160 0 -260 86 -260 242v396h-95z" />
    <glyph glyph-name="Ubreve" unicode="&#x16c;" horiz-adv-x="752" 
d="M235 885h54c0 -66 33 -89 88 -89c54 0 86 23 86 89h54c0 -103 -50 -147 -140 -147c-91 0 -142 44 -142 147zM20 628v72h273v-72h-95v-396c0 -108 67 -170 177 -170c112 0 179 62 179 170v396h-95v72h273v-72h-95v-396c0 -156 -100 -242 -262 -242
c-160 0 -260 86 -260 242v396h-95z" />
    <glyph glyph-name="Ucircumflex" unicode="&#xdb;" horiz-adv-x="752" 
d="M20 628v72h273v-72h-95v-396c0 -108 67 -170 177 -170c112 0 179 62 179 170v396h-95v72h273v-72h-95v-396c0 -156 -100 -242 -262 -242c-160 0 -260 86 -260 242v396h-95zM419 885l113 -145h-73l-84 99l-84 -99h-71l113 145h86z" />
    <glyph glyph-name="Udieresis" unicode="&#xdc;" horiz-adv-x="752" 
d="M224 758v107h68v-107h-68zM459 758v107h68v-107h-68zM20 628v72h273v-72h-95v-396c0 -108 67 -170 177 -170c112 0 179 62 179 170v396h-95v72h273v-72h-95v-396c0 -156 -100 -242 -262 -242c-160 0 -260 86 -260 242v396h-95z" />
    <glyph glyph-name="Ugrave" unicode="&#xd9;" horiz-adv-x="752" 
d="M434 740h-67l-110 145h86zM20 628v72h273v-72h-95v-396c0 -108 67 -170 177 -170c112 0 179 62 179 170v396h-95v72h273v-72h-95v-396c0 -156 -100 -242 -262 -242c-160 0 -260 86 -260 242v396h-95z" />
    <glyph glyph-name="Uhungarumlaut" unicode="&#x170;" horiz-adv-x="752" 
d="M20 628v72h273v-72h-95v-396c0 -108 67 -170 177 -170c112 0 179 62 179 170v396h-95v72h273v-72h-95v-396c0 -156 -100 -242 -262 -242c-160 0 -260 86 -260 242v396h-95zM277 740h-63l101 145h82zM478 740h-63l101 145h82z" />
    <glyph glyph-name="Umacron" unicode="&#x16a;" horiz-adv-x="752" 
d="M224 774v57h302v-57h-302zM20 628v72h273v-72h-95v-396c0 -108 67 -170 177 -170c112 0 179 62 179 170v396h-95v72h273v-72h-95v-396c0 -156 -100 -242 -262 -242c-160 0 -260 86 -260 242v396h-95z" />
    <glyph glyph-name="Uogonek" unicode="&#x172;" horiz-adv-x="752" 
d="M20 628v72h273v-72h-95v-396c0 -108 67 -170 177 -170c112 0 179 62 179 170v396h-95v72h273v-72h-95v-396c0 -130 -69 -211 -185 -234c-25 -33 -38 -67 -38 -97c0 -29 19 -48 54 -48c12 0 24 2 38 5v-51c-23 -8 -44 -11 -63 -11c-62 0 -103 34 -103 86
c0 31 14 70 45 108h-10c-160 0 -260 86 -260 242v396h-95z" />
    <glyph glyph-name="Uring" unicode="&#x16e;" horiz-adv-x="752" 
d="M20 628v72h273v-72h-95v-396c0 -108 67 -170 177 -170c112 0 179 62 179 170v396h-95v72h273v-72h-95v-396c0 -156 -100 -242 -262 -242c-160 0 -260 86 -260 242v396h-95zM274 814c0 57 41 96 101 96s102 -39 102 -96s-42 -96 -102 -96s-101 39 -101 96zM324 814
c0 -34 19 -55 51 -55s51 21 51 55s-19 55 -51 55s-51 -21 -51 -55z" />
    <glyph glyph-name="Utilde" unicode="&#x168;" horiz-adv-x="752" 
d="M238 757l-44 26c40 77 75 99 110 99c60 0 114 -75 151 -75c16 0 35 18 63 67l43 -26c-39 -78 -75 -99 -108 -99c-61 0 -115 74 -151 74c-19 0 -37 -17 -64 -66zM20 628v72h273v-72h-95v-396c0 -108 67 -170 177 -170c112 0 179 62 179 170v396h-95v72h273v-72h-95v-396
c0 -156 -100 -242 -262 -242c-160 0 -260 86 -260 242v396h-95z" />
    <glyph glyph-name="Wacute" unicode="&#x1e82;" horiz-adv-x="1021" 
d="M513 740h-68l92 145h86zM749 628v72h262v-72h-88l-170 -628h-94l-150 550l-150 -550h-94l-171 628h-84v72h263v-72h-97l139 -522l155 594h80l155 -594l139 522h-95z" />
    <glyph glyph-name="Wcircumflex" unicode="&#x174;" horiz-adv-x="1021" 
d="M749 628v72h262v-72h-88l-170 -628h-94l-150 550l-150 -550h-94l-171 628h-84v72h263v-72h-97l139 -522l155 594h80l155 -594l139 522h-95zM552 885l113 -145h-73l-84 99l-84 -99h-71l113 145h86z" />
    <glyph glyph-name="Wdieresis" unicode="&#x1e84;" horiz-adv-x="1021" 
d="M357 758v107h68v-107h-68zM592 758v107h68v-107h-68zM749 628v72h262v-72h-88l-170 -628h-94l-150 550l-150 -550h-94l-171 628h-84v72h263v-72h-97l139 -522l155 594h80l155 -594l139 522h-95z" />
    <glyph glyph-name="Wgrave" unicode="&#x1e80;" horiz-adv-x="1021" 
d="M572 740h-67l-110 145h86zM749 628v72h262v-72h-88l-170 -628h-94l-150 550l-150 -550h-94l-171 628h-84v72h263v-72h-97l139 -522l155 594h80l155 -594l139 522h-95z" />
    <glyph glyph-name="Yacute" unicode="&#xdd;" horiz-adv-x="705" 
d="M705 700v-72h-82l-229 -360v-196h115v-72h-312v72h115v196l-229 360h-83v72h268v-72h-88l177 -282l178 282h-97v72h267zM362 740h-68l92 145h86z" />
    <glyph glyph-name="Ycircumflex" unicode="&#x176;" horiz-adv-x="705" 
d="M705 700v-72h-82l-229 -360v-196h115v-72h-312v72h115v196l-229 360h-83v72h268v-72h-88l177 -282l178 282h-97v72h267zM396 885l113 -145h-73l-84 99l-84 -99h-71l113 145h86z" />
    <glyph glyph-name="Ydieresis" unicode="&#x178;" horiz-adv-x="705" 
d="M705 700v-72h-82l-229 -360v-196h115v-72h-312v72h115v196l-229 360h-83v72h268v-72h-88l177 -282l178 282h-97v72h267zM201 758v107h68v-107h-68zM436 758v107h68v-107h-68z" />
    <glyph glyph-name="Ygrave" unicode="&#x1ef2;" horiz-adv-x="705" 
d="M705 700v-72h-82l-229 -360v-196h115v-72h-312v72h115v196l-229 360h-83v72h268v-72h-88l177 -282l178 282h-97v72h267zM411 740h-67l-110 145h86z" />
    <glyph glyph-name="Zacute" unicode="&#x179;" horiz-adv-x="577" 
d="M35 72l409 556h-326v-128h-83v200h507v-72l-409 -556h326v128h83v-200h-507v72zM297 740h-68l92 145h86z" />
    <glyph glyph-name="Zcaron" unicode="&#x17d;" horiz-adv-x="577" 
d="M245 740l-113 145h73l84 -98l84 98h71l-113 -145h-86zM35 72l409 556h-326v-128h-83v200h507v-72l-409 -556h326v128h83v-200h-507v72z" />
    <glyph glyph-name="Zdotaccent" unicode="&#x17b;" horiz-adv-x="577" 
d="M249 755v113h78v-113h-78zM35 72l409 556h-326v-128h-83v200h507v-72l-409 -556h326v128h83v-200h-507v72z" />
    <glyph glyph-name="a" unicode="a" horiz-adv-x="571" 
d="M40 144c0 105 74 154 189 154c67 0 121 -17 155 -51v98c0 74 -47 111 -122 111c-79 0 -119 -29 -119 -99h-78c0 110 71 163 197 163c121 0 199 -59 199 -180v-273h90v-67h-150l-9 54c-33 -42 -91 -64 -164 -64c-114 0 -188 49 -188 154zM118 147c0 -63 50 -90 130 -90
s136 31 136 90c0 58 -56 89 -136 89s-130 -26 -130 -89z" />
    <glyph glyph-name="b" unicode="b" horiz-adv-x="584" 
d="M526 329v-147c0 -124 -74 -192 -191 -192c-70 0 -126 24 -160 70l-10 -60h-60v673h-95v67h173v-284c34 42 87 64 152 64c117 0 191 -67 191 -191zM449 177v157c0 77 -50 119 -130 119c-83 0 -136 -45 -136 -124v-147c0 -80 53 -125 135 -125c81 0 131 43 131 120z" />
    <glyph glyph-name="c" unicode="c" horiz-adv-x="526" 
d="M479 338h-78v1c0 74 -49 114 -131 114c-85 0 -135 -43 -135 -121v-154c0 -77 51 -121 135 -121c82 0 131 42 131 110v6h78v-1c0 -115 -80 -182 -209 -182c-131 0 -212 69 -212 193v144c0 125 78 193 203 193c69 0 119 -19 148 -59l10 49h60v-172z" />
    <glyph glyph-name="d" unicode="d" horiz-adv-x="594" 
d="M419 0l-11 60c-33 -46 -89 -70 -159 -70c-117 0 -191 68 -191 192v147c0 124 74 191 191 191c65 0 118 -21 152 -61v214h-95v67h173v-673h95v-67h-155zM135 334v-157c0 -77 50 -120 131 -120c82 0 135 45 135 125v147c0 79 -53 124 -136 124c-80 0 -130 -42 -130 -119z
" />
    <glyph glyph-name="e" unicode="e" 
d="M401 158h77c-6 -107 -83 -168 -208 -168c-130 0 -212 68 -212 193v146c0 126 83 191 211 191c126 0 210 -65 210 -191v-96h-344v-55c0 -75 48 -121 135 -121c84 0 127 42 131 101zM135 334v-39h266v39c0 79 -52 119 -132 119c-81 0 -134 -40 -134 -119z" />
    <glyph glyph-name="f" unicode="f" horiz-adv-x="365" 
d="M35 0v67h95v376h-110v67h110v45c0 143 33 221 235 187v-64c-132 18 -157 -12 -157 -115v-53h157v-67h-157v-376h95v-67h-268z" />
    <glyph glyph-name="g" unicode="g" horiz-adv-x="584" 
d="M58 202v127c0 124 74 191 191 191c70 0 127 -24 160 -70l10 60h155v-67h-95v-460c0 -125 -81 -193 -213 -193c-128 0 -208 66 -208 181v1h77v-6c0 -68 49 -109 131 -109c85 0 135 43 135 121v95c-34 -41 -87 -63 -152 -63c-117 0 -191 68 -191 192zM135 334v-137
c0 -77 50 -120 131 -120c82 0 135 45 135 125v127c0 79 -53 124 -136 124c-80 0 -130 -42 -130 -119z" />
    <glyph glyph-name="h" unicode="h" horiz-adv-x="681" 
d="M50 673v67h173v-279c34 39 87 59 152 59c117 0 191 -60 191 -186v-267h95v-67h-172v339c0 79 -50 114 -130 114s-136 -40 -136 -119v-267h95v-67h-268v67h95v606h-95z" />
    <glyph glyph-name="i" unicode="i" horiz-adv-x="358" 
d="M145 610v113h78v-113h-78zM223 510v-443h95v-67h-268v67h95v376h-95v67h173z" />
    <glyph glyph-name="j" unicode="j" horiz-adv-x="313" 
d="M145 610v113h78v-113h-78zM145 -39v482h-95v67h173v-541c0 -123 -33 -201 -190 -167v64c88 -18 112 12 112 95z" />
    <glyph glyph-name="k" unicode="k" horiz-adv-x="659" 
d="M634 67v-67h-138l-184 246l-89 -87v-92h90v-67h-263v67h95v606h-95v67h173v-505l208 208h-82v67h253v-67h-81l-149 -146l172 -230h90z" />
    <glyph glyph-name="l" unicode="l" horiz-adv-x="358" 
d="M223 740v-673h95v-67h-268v67h95v606h-95v67h173z" />
    <glyph glyph-name="m" unicode="m" horiz-adv-x="931" 
d="M442 0v345c0 76 -41 108 -107 108s-112 -37 -112 -113v-273h90v-67h-263v67h95v376h-95v67h155l9 -53c30 42 78 63 138 63c69 0 121 -26 147 -79c29 52 82 79 149 79c103 0 168 -56 168 -176v-277h95v-67h-173v345c0 76 -41 108 -107 108c-64 0 -112 -36 -112 -113v-273
h90v-67h-167z" />
    <glyph glyph-name="n" unicode="n" horiz-adv-x="681" 
d="M50 443v67h155l10 -58c34 45 90 68 160 68c117 0 191 -60 191 -186v-267h95v-67h-172v339c0 79 -50 114 -130 114s-136 -40 -136 -119v-267h95v-67h-268v67h95v376h-95z" />
    <glyph glyph-name="o" unicode="o" 
d="M479 329v-147c0 -127 -84 -192 -211 -192s-210 65 -210 192v147c0 126 83 191 211 191c126 0 210 -65 210 -191zM401 177v157c0 79 -52 119 -132 119c-81 0 -134 -40 -134 -119v-157c0 -80 53 -120 133 -120c81 0 133 40 133 120z" />
    <glyph glyph-name="p" unicode="p" horiz-adv-x="624" 
d="M50 443v67h155l10 -60c34 45 90 70 160 70c117 0 191 -67 191 -191v-147c0 -124 -74 -192 -191 -192c-65 0 -118 19 -152 58v-181h95v-67h-268v67h95v576h-95zM489 177v157c0 77 -50 119 -130 119c-83 0 -136 -45 -136 -124v-147c0 -80 53 -125 135 -125
c81 0 131 43 131 120z" />
    <glyph glyph-name="q" unicode="q" horiz-adv-x="584" 
d="M306 -200v67h95v186c-34 -41 -87 -63 -152 -63c-117 0 -191 68 -191 192v147c0 124 74 191 191 191c70 0 127 -24 160 -70l10 60h155v-67h-95v-576h95v-67h-268zM135 334v-157c0 -77 50 -120 131 -120c82 0 135 45 135 125v147c0 79 -53 124 -136 124
c-80 0 -130 -42 -130 -119z" />
    <glyph glyph-name="r" unicode="r" horiz-adv-x="430" 
d="M50 443v67h155l11 -64c45 60 127 85 204 67v-70c-120 22 -197 -27 -197 -109v-267h95v-67h-268v67h95v376h-95z" />
    <glyph glyph-name="s" unicode="s" horiz-adv-x="521" 
d="M459 354h-78v5c-2 65 -42 97 -121 97c-83 0 -120 -29 -120 -78c0 -51 45 -72 139 -90c113 -22 190 -52 190 -155c0 -90 -75 -143 -189 -143c-72 0 -127 17 -159 56l-8 -46h-60v156h77c0 -68 50 -101 134 -101c82 0 127 28 127 82c0 49 -44 71 -137 89
c-110 21 -191 50 -191 156c0 75 55 138 180 138c71 0 120 -21 148 -55l8 45h60v-156z" />
    <glyph glyph-name="t" unicode="t" horiz-adv-x="395" 
d="M198 443v-263c0 -103 25 -133 157 -116v-64c-202 -34 -235 44 -235 187v256h-100v67h100v170l78 23v-193h157v-67h-157z" />
    <glyph glyph-name="u" unicode="u" horiz-adv-x="656" 
d="M20 510h173v-338c0 -80 50 -115 130 -115c81 0 136 40 136 120v266h-95v67h172v-443h95v-67h-155l-10 59c-34 -46 -90 -69 -160 -69c-116 0 -191 60 -191 187v266h-95v67z" />
    <glyph glyph-name="v" unicode="v" horiz-adv-x="652" 
d="M375 0h-98l-183 443h-79v67h248v-67h-88l154 -373l153 373h-88v67h243v-67h-78z" />
    <glyph glyph-name="w" unicode="w" horiz-adv-x="903" 
d="M327 0h-87l-151 443h-74v67h245v-67h-93l119 -355l130 422h77l129 -422l119 355h-93v67h240v-67h-74l-150 -443h-87l-125 393z" />
    <glyph glyph-name="x" unicode="x" horiz-adv-x="623" 
d="M30 0v67h69l166 186l-166 190h-69v67h238v-67h-74l122 -149l123 149h-74v67h228v-67h-69l-167 -185l167 -191h69v-67h-238v67h74l-123 149l-122 -149h74v-67h-228z" />
    <glyph glyph-name="y" unicode="y" horiz-adv-x="652" 
d="M150 -200v67h97l56 133h-26l-183 443h-79v67h248v-67h-88l154 -373l153 373h-88v67h243v-67h-78l-241 -576h84v-67h-252z" />
    <glyph glyph-name="z" unicode="z" horiz-adv-x="496" 
d="M40 67l320 376h-242v-99h-78v166h416v-67l-320 -376h243v99h77v-166h-416v67z" />
    <glyph glyph-name="ae" unicode="&#xe6;" horiz-adv-x="862" 
d="M727 158h77c-6 -107 -83 -168 -200 -168c-84 0 -147 30 -180 86c-32 -57 -99 -86 -191 -86c-117 0 -193 49 -193 154s73 154 189 154c65 0 120 -16 155 -49v96c0 74 -47 111 -122 111c-79 0 -119 -29 -119 -99h-78c0 110 71 163 197 163c79 0 136 -27 164 -83
c33 55 95 83 176 83c122 0 203 -65 203 -191v-96h-344v-55c0 -77 51 -121 135 -121s127 42 131 101zM118 147c0 -63 50 -90 130 -90s136 31 136 90c0 58 -56 89 -136 89s-130 -26 -130 -89zM461 334v-39h266v39c0 79 -52 119 -132 119c-81 0 -134 -40 -134 -119z" />
    <glyph glyph-name="eng" unicode="&#x14b;" horiz-adv-x="656" 
d="M50 443v67h155l10 -58c34 45 90 68 160 68c117 0 191 -60 191 -186v-365c0 -123 -33 -201 -190 -167v64c88 -18 113 12 113 95v378c0 79 -50 114 -130 114s-136 -40 -136 -119v-267h95v-67h-268v67h95v376h-95z" />
    <glyph glyph-name="germandbls" unicode="&#xdf;" horiz-adv-x="681" 
d="M20 0v67h95v483c0 122 98 200 244 200c145 0 240 -73 240 -185c0 -75 -39 -131 -104 -161c88 -32 141 -103 141 -208c0 -132 -78 -206 -199 -206c-117 0 -176 71 -176 174v8h72v-3c0 -70 45 -112 103 -112c79 0 123 55 123 144c0 104 -73 164 -185 165h-19v67h10
c93 3 156 49 156 125s-62 125 -162 125c-99 0 -166 -54 -166 -140v-543h-173z" />
    <glyph glyph-name="eth" unicode="&#xf0;" 
d="M131 581l103 46c-35 27 -75 48 -118 65l24 58c62 -23 116 -54 162 -92l119 54l19 -49l-98 -44c89 -93 137 -220 137 -368v-69c0 -127 -84 -192 -211 -192s-210 65 -210 192v107c0 126 78 191 189 191c49 0 92 -12 125 -34c-21 54 -53 103 -95 144l-127 -57zM401 177v104
c0 88 -46 132 -132 132c-81 0 -134 -40 -134 -119v-117c0 -80 53 -120 133 -120c81 0 133 40 133 120z" />
    <glyph glyph-name="ij" unicode="&#x133;" horiz-adv-x="670" 
d="M145 610v113h78v-113h-78zM223 510v-443h95v-67h-268v67h95v376h-95v67h173zM502 610v113h78v-113h-78zM502 -39v482h-95v67h173v-541c0 -123 -33 -201 -190 -167v64c88 -18 112 12 112 95z" />
    <glyph glyph-name="kgreenlandic" unicode="&#x138;" horiz-adv-x="659" 
d="M634 67v-67h-138l-184 246l-89 -87v-92h90v-67h-263v67h95v376h-95v67h173v-275l208 208h-82v67h253v-67h-81l-149 -146l172 -230h90z" />
    <glyph glyph-name="oe" unicode="&#x153;" horiz-adv-x="880" 
d="M744 158h78c-7 -107 -84 -168 -204 -168c-81 0 -143 27 -178 78c-34 -52 -97 -78 -176 -78c-124 0 -206 65 -206 192v147c0 126 82 191 207 191c78 0 140 -26 175 -78c34 52 96 78 176 78c124 0 206 -65 206 -191v-96h-343v-55c0 -76 49 -121 135 -121
c84 0 126 42 130 101zM401 177v157c0 79 -52 119 -132 119c-81 0 -134 -40 -134 -119v-157c0 -80 53 -120 133 -120c81 0 133 40 133 120zM479 334v-39h266v39c0 79 -53 119 -133 119s-133 -40 -133 -119z" />
    <glyph glyph-name="oslash" unicode="&#xf8;" 
d="M471 554l-48 -84c36 -32 56 -79 56 -141v-147c0 -127 -84 -192 -211 -192c-42 0 -79 8 -110 21l-47 -81l-45 26l48 83c-36 32 -56 80 -56 143v147c0 126 83 191 211 191c42 0 79 -8 110 -22l47 82zM135 177c0 -28 6 -52 18 -70l190 330c-20 11 -45 16 -74 16
c-81 0 -134 -40 -134 -119v-157zM401 177v157c0 27 -6 50 -18 68l-190 -330c20 -10 46 -15 75 -15c81 0 133 40 133 120z" />
    <glyph glyph-name="thorn" unicode="&#xfe;" horiz-adv-x="624" 
d="M50 673v67h173v-281c34 40 87 61 152 61c117 0 191 -67 191 -191v-147c0 -124 -74 -192 -191 -192c-65 0 -118 19 -152 58v-181h95v-67h-268v67h95v806h-95zM489 177v157c0 77 -50 119 -130 119c-83 0 -136 -45 -136 -124v-147c0 -80 53 -125 135 -125
c81 0 131 43 131 120z" />
    <glyph glyph-name="aacute" unicode="&#xe1;" horiz-adv-x="571" 
d="M40 144c0 105 74 154 189 154c67 0 121 -17 155 -51v98c0 74 -47 111 -122 111c-79 0 -119 -29 -119 -99h-78c0 110 71 163 197 163c121 0 199 -59 199 -180v-273h90v-67h-150l-9 54c-33 -42 -91 -64 -164 -64c-114 0 -188 49 -188 154zM118 147c0 -63 50 -90 130 -90
s136 31 136 90c0 58 -56 89 -136 89s-130 -26 -130 -89zM275 580h-63l101 160h82z" />
    <glyph glyph-name="abreve" unicode="&#x103;" horiz-adv-x="571" 
d="M40 144c0 105 74 154 189 154c67 0 121 -17 155 -51v98c0 74 -47 111 -122 111c-79 0 -119 -29 -119 -99h-78c0 110 71 163 197 163c121 0 199 -59 199 -180v-273h90v-67h-150l-9 54c-33 -42 -91 -64 -164 -64c-114 0 -188 49 -188 154zM118 147c0 -63 50 -90 130 -90
s136 31 136 90c0 58 -56 89 -136 89s-130 -26 -130 -89zM132 740h54c0 -71 23 -96 78 -96c54 0 77 25 77 96h53c0 -108 -40 -155 -130 -155c-91 0 -132 47 -132 155z" />
    <glyph glyph-name="acircumflex" unicode="&#xe2;" horiz-adv-x="571" 
d="M40 144c0 105 74 154 189 154c67 0 121 -17 155 -51v98c0 74 -47 111 -122 111c-79 0 -119 -29 -119 -99h-78c0 110 71 163 197 163c121 0 199 -59 199 -180v-273h90v-67h-150l-9 54c-33 -42 -91 -64 -164 -64c-114 0 -188 49 -188 154zM118 147c0 -63 50 -90 130 -90
s136 31 136 90c0 58 -56 89 -136 89s-130 -26 -130 -89zM301 740l108 -160h-72l-75 106l-75 -106h-70l108 160h76z" />
    <glyph glyph-name="adieresis" unicode="&#xe4;" horiz-adv-x="571" 
d="M40 144c0 105 74 154 189 154c67 0 121 -17 155 -51v98c0 74 -47 111 -122 111c-79 0 -119 -29 -119 -99h-78c0 110 71 163 197 163c121 0 199 -59 199 -180v-273h90v-67h-150l-9 54c-33 -42 -91 -64 -164 -64c-114 0 -188 49 -188 154zM118 147c0 -63 50 -90 130 -90
s136 31 136 90c0 58 -56 89 -136 89s-130 -26 -130 -89zM126 605v108h68v-108h-68zM331 605v108h68v-108h-68z" />
    <glyph glyph-name="agrave" unicode="&#xe0;" horiz-adv-x="571" 
d="M40 144c0 105 74 154 189 154c67 0 121 -17 155 -51v98c0 74 -47 111 -122 111c-79 0 -119 -29 -119 -99h-78c0 110 71 163 197 163c121 0 199 -59 199 -180v-273h90v-67h-150l-9 54c-33 -42 -91 -64 -164 -64c-114 0 -188 49 -188 154zM118 147c0 -63 50 -90 130 -90
s136 31 136 90c0 58 -56 89 -136 89s-130 -26 -130 -89zM314 580h-62l-120 160h81z" />
    <glyph glyph-name="amacron" unicode="&#x101;" horiz-adv-x="571" 
d="M40 144c0 105 74 154 189 154c67 0 121 -17 155 -51v98c0 74 -47 111 -122 111c-79 0 -119 -29 -119 -99h-78c0 110 71 163 197 163c121 0 199 -59 199 -180v-273h90v-67h-150l-9 54c-33 -42 -91 -64 -164 -64c-114 0 -188 49 -188 154zM118 147c0 -63 50 -90 130 -90
s136 31 136 90c0 58 -56 89 -136 89s-130 -26 -130 -89zM126 619v57h272v-57h-272z" />
    <glyph glyph-name="aogonek" unicode="&#x105;" horiz-adv-x="571" 
d="M40 144c0 105 74 154 189 154c67 0 121 -17 155 -51v98c0 74 -47 111 -122 111c-79 0 -119 -29 -119 -99h-78c0 110 71 163 197 163c121 0 199 -59 199 -180v-273h90v-67h-90c-26 -34 -40 -68 -40 -99c0 -29 19 -48 54 -48c12 0 24 2 38 5v-51c-23 -8 -44 -11 -63 -11
c-62 0 -103 34 -103 86c0 34 17 77 54 119l-9 53c-33 -42 -91 -64 -164 -64c-114 0 -188 49 -188 154zM118 147c0 -63 50 -90 130 -90s136 31 136 90c0 58 -56 89 -136 89s-130 -26 -130 -89z" />
    <glyph glyph-name="aring" unicode="&#xe5;" horiz-adv-x="571" 
d="M40 144c0 105 74 154 189 154c67 0 121 -17 155 -51v98c0 74 -47 111 -122 111c-79 0 -119 -29 -119 -99h-78c0 110 71 163 197 163c121 0 199 -59 199 -180v-273h90v-67h-150l-9 54c-33 -42 -91 -64 -164 -64c-114 0 -188 49 -188 154zM118 147c0 -63 50 -90 130 -90
s136 31 136 90c0 58 -56 89 -136 89s-130 -26 -130 -89zM161 654c0 57 41 96 101 96s102 -39 102 -96s-42 -96 -102 -96s-101 39 -101 96zM211 654c0 -34 19 -55 51 -55s51 21 51 55s-19 55 -51 55s-51 -21 -51 -55z" />
    <glyph glyph-name="atilde" unicode="&#xe3;" horiz-adv-x="571" 
d="M40 144c0 105 74 154 189 154c67 0 121 -17 155 -51v98c0 74 -47 111 -122 111c-79 0 -119 -29 -119 -99h-78c0 110 71 163 197 163c121 0 199 -59 199 -180v-273h90v-67h-150l-9 54c-33 -42 -91 -64 -164 -64c-114 0 -188 49 -188 154zM118 147c0 -63 50 -90 130 -90
s136 31 136 90c0 58 -56 89 -136 89s-130 -26 -130 -89zM137 612l-44 26c40 77 72 99 107 99c61 0 97 -75 131 -75c17 0 33 18 61 67l43 -26c-39 -78 -72 -99 -107 -99c-60 0 -96 74 -131 74c-16 0 -33 -17 -60 -66z" />
    <glyph glyph-name="cacute" unicode="&#x107;" horiz-adv-x="526" 
d="M275 580h-63l101 160h82zM479 338h-78v1c0 74 -49 114 -131 114c-85 0 -135 -43 -135 -121v-154c0 -77 51 -121 135 -121c82 0 131 42 131 110v6h78v-1c0 -115 -80 -182 -209 -182c-131 0 -212 69 -212 193v144c0 125 78 193 203 193c69 0 119 -19 148 -59l10 49h60v-172
z" />
    <glyph glyph-name="ccaron" unicode="&#x10d;" horiz-adv-x="526" 
d="M225 580l-108 160h72l75 -106l75 106h70l-108 -160h-76zM479 338h-78v1c0 74 -49 114 -131 114c-85 0 -135 -43 -135 -121v-154c0 -77 51 -121 135 -121c82 0 131 42 131 110v6h78v-1c0 -115 -80 -182 -209 -182c-131 0 -212 69 -212 193v144c0 125 78 193 203 193
c69 0 119 -19 148 -59l10 49h60v-172z" />
    <glyph glyph-name="ccedilla" unicode="&#xe7;" horiz-adv-x="526" 
d="M479 338h-78v1c0 74 -49 114 -131 114c-85 0 -135 -43 -135 -121v-154c0 -77 51 -121 135 -121c82 0 131 42 131 110v6h78v-1c0 -115 -80 -182 -209 -182c-131 0 -212 69 -212 193v144c0 125 78 193 203 193c69 0 119 -19 148 -59l10 49h60v-172zM205 -199l-12 46
c69 -7 108 -4 108 32c0 35 -39 38 -108 31l12 45c97 13 163 -11 163 -77c0 -67 -66 -91 -163 -77z" />
    <glyph glyph-name="ccircumflex" unicode="&#x109;" horiz-adv-x="526" 
d="M301 740l108 -160h-72l-75 106l-75 -106h-70l108 160h76zM479 338h-78v1c0 74 -49 114 -131 114c-85 0 -135 -43 -135 -121v-154c0 -77 51 -121 135 -121c82 0 131 42 131 110v6h78v-1c0 -115 -80 -182 -209 -182c-131 0 -212 69 -212 193v144c0 125 78 193 203 193
c69 0 119 -19 148 -59l10 49h60v-172z" />
    <glyph glyph-name="cdotaccent" unicode="&#x10b;" horiz-adv-x="526" 
d="M479 338h-78v1c0 74 -49 114 -131 114c-85 0 -135 -43 -135 -121v-154c0 -77 51 -121 135 -121c82 0 131 42 131 110v6h78v-1c0 -115 -80 -182 -209 -182c-131 0 -212 69 -212 193v144c0 125 78 193 203 193c69 0 119 -19 148 -59l10 49h60v-172zM224 610v113h78v-113
h-78z" />
    <glyph glyph-name="dcaron" unicode="&#x10f;" horiz-adv-x="594" 
d="M528 580l17 200h73l-43 -200h-47zM419 0l-11 60c-33 -46 -89 -70 -159 -70c-117 0 -191 68 -191 192v147c0 124 74 191 191 191c65 0 118 -21 152 -61v214h-95v67h173v-673h95v-67h-155zM135 334v-157c0 -77 50 -120 131 -120c82 0 135 45 135 125v147
c0 79 -53 124 -136 124c-80 0 -130 -42 -130 -119z" />
    <glyph glyph-name="dcroat" unicode="&#x111;" horiz-adv-x="579" 
d="M267 602v57h134v81h78v-81h70v-57h-70v-535h95v-67h-155l-11 60c-33 -46 -89 -70 -159 -70c-117 0 -191 68 -191 192v147c0 124 74 191 191 191c65 0 118 -21 152 -61v143h-134zM135 334v-157c0 -77 50 -120 131 -120c82 0 135 45 135 125v147c0 79 -53 124 -136 124
c-80 0 -130 -42 -130 -119z" />
    <glyph glyph-name="eacute" unicode="&#xe9;" 
d="M280 580h-63l101 160h82zM401 158h77c-6 -107 -83 -168 -208 -168c-130 0 -212 68 -212 193v146c0 126 83 191 211 191c126 0 210 -65 210 -191v-96h-344v-55c0 -75 48 -121 135 -121c84 0 127 42 131 101zM135 334v-39h266v39c0 79 -52 119 -132 119
c-81 0 -134 -40 -134 -119z" />
    <glyph glyph-name="ebreve" unicode="&#x115;" 
d="M401 158h77c-6 -107 -83 -168 -208 -168c-130 0 -212 68 -212 193v146c0 126 83 191 211 191c126 0 210 -65 210 -191v-96h-344v-55c0 -75 48 -121 135 -121c84 0 127 42 131 101zM135 334v-39h266v39c0 79 -52 119 -132 119c-81 0 -134 -40 -134 -119zM137 740h54
c0 -71 23 -96 78 -96c54 0 77 25 77 96h53c0 -108 -40 -155 -130 -155c-91 0 -132 47 -132 155z" />
    <glyph glyph-name="ecaron" unicode="&#x11b;" 
d="M230 580l-108 160h72l75 -106l75 106h70l-108 -160h-76zM401 158h77c-6 -107 -83 -168 -208 -168c-130 0 -212 68 -212 193v146c0 126 83 191 211 191c126 0 210 -65 210 -191v-96h-344v-55c0 -75 48 -121 135 -121c84 0 127 42 131 101zM135 334v-39h266v39
c0 79 -52 119 -132 119c-81 0 -134 -40 -134 -119z" />
    <glyph glyph-name="ecircumflex" unicode="&#xea;" 
d="M306 740l108 -160h-72l-75 106l-75 -106h-70l108 160h76zM401 158h77c-6 -107 -83 -168 -208 -168c-130 0 -212 68 -212 193v146c0 126 83 191 211 191c126 0 210 -65 210 -191v-96h-344v-55c0 -75 48 -121 135 -121c84 0 127 42 131 101zM135 334v-39h266v39
c0 79 -52 119 -132 119c-81 0 -134 -40 -134 -119z" />
    <glyph glyph-name="edieresis" unicode="&#xeb;" 
d="M131 605v108h68v-108h-68zM336 605v108h68v-108h-68zM401 158h77c-6 -107 -83 -168 -208 -168c-130 0 -212 68 -212 193v146c0 126 83 191 211 191c126 0 210 -65 210 -191v-96h-344v-55c0 -75 48 -121 135 -121c84 0 127 42 131 101zM135 334v-39h266v39
c0 79 -52 119 -132 119c-81 0 -134 -40 -134 -119z" />
    <glyph glyph-name="edotaccent" unicode="&#x117;" 
d="M401 158h77c-6 -107 -83 -168 -208 -168c-130 0 -212 68 -212 193v146c0 126 83 191 211 191c126 0 210 -65 210 -191v-96h-344v-55c0 -75 48 -121 135 -121c84 0 127 42 131 101zM135 334v-39h266v39c0 79 -52 119 -132 119c-81 0 -134 -40 -134 -119zM229 610v113h78
v-113h-78z" />
    <glyph glyph-name="egrave" unicode="&#xe8;" 
d="M401 158h77c-6 -107 -83 -168 -208 -168c-130 0 -212 68 -212 193v146c0 126 83 191 211 191c126 0 210 -65 210 -191v-96h-344v-55c0 -75 48 -121 135 -121c84 0 127 42 131 101zM135 334v-39h266v39c0 79 -52 119 -132 119c-81 0 -134 -40 -134 -119zM319 580h-62
l-120 160h81z" />
    <glyph glyph-name="emacron" unicode="&#x113;" 
d="M401 158h77c-6 -107 -83 -168 -208 -168c-130 0 -212 68 -212 193v146c0 126 83 191 211 191c126 0 210 -65 210 -191v-96h-344v-55c0 -75 48 -121 135 -121c84 0 127 42 131 101zM135 334v-39h266v39c0 79 -52 119 -132 119c-81 0 -134 -40 -134 -119zM131 619v57h272
v-57h-272z" />
    <glyph glyph-name="eogonek" unicode="&#x119;" 
d="M401 158h77c-3 -40 -15 -74 -36 -100c-39 -55 -74 -109 -74 -157c0 -29 18 -48 54 -48c12 0 23 2 37 6v-52c-22 -8 -44 -11 -63 -11c-62 0 -102 34 -102 86c0 37 21 78 51 117c-22 -6 -48 -9 -75 -9c-130 0 -212 68 -212 193v146c0 126 83 191 211 191
c126 0 210 -65 210 -191v-96h-344v-55c0 -75 48 -121 135 -121c84 0 127 42 131 101zM135 334v-39h266v39c0 79 -52 119 -132 119c-81 0 -134 -40 -134 -119z" />
    <glyph glyph-name="gbreve" unicode="&#x11f;" horiz-adv-x="584" 
d="M58 202v127c0 124 74 191 191 191c70 0 127 -24 160 -70l10 60h155v-67h-95v-460c0 -125 -81 -193 -213 -193c-128 0 -208 66 -208 181v1h77v-6c0 -68 49 -109 131 -109c85 0 135 43 135 121v95c-34 -41 -87 -63 -152 -63c-117 0 -191 68 -191 192zM135 334v-137
c0 -77 50 -120 131 -120c82 0 135 45 135 125v127c0 79 -53 124 -136 124c-80 0 -130 -42 -130 -119zM142 740h54c0 -71 23 -96 78 -96c54 0 77 25 77 96h53c0 -108 -40 -155 -130 -155c-91 0 -132 47 -132 155z" />
    <glyph glyph-name="gcircumflex" unicode="&#x11d;" horiz-adv-x="584" 
d="M311 740l108 -160h-72l-75 106l-75 -106h-70l108 160h76zM58 202v127c0 124 74 191 191 191c70 0 127 -24 160 -70l10 60h155v-67h-95v-460c0 -125 -81 -193 -213 -193c-128 0 -208 66 -208 181v1h77v-6c0 -68 49 -109 131 -109c85 0 135 43 135 121v95
c-34 -41 -87 -63 -152 -63c-117 0 -191 68 -191 192zM135 334v-137c0 -77 50 -120 131 -120c82 0 135 45 135 125v127c0 79 -53 124 -136 124c-80 0 -130 -42 -130 -119z" />
    <glyph glyph-name="gcommaaccent" unicode="&#x123;" horiz-adv-x="584" 
d="M313 740l-10 -140h-72l27 140h55zM58 202v127c0 124 74 191 191 191c70 0 127 -24 160 -70l10 60h155v-67h-95v-460c0 -125 -81 -193 -213 -193c-128 0 -208 66 -208 181v1h77v-6c0 -68 49 -109 131 -109c85 0 135 43 135 121v95c-34 -41 -87 -63 -152 -63
c-117 0 -191 68 -191 192zM135 334v-137c0 -77 50 -120 131 -120c82 0 135 45 135 125v127c0 79 -53 124 -136 124c-80 0 -130 -42 -130 -119z" />
    <glyph glyph-name="gdotaccent" unicode="&#x121;" horiz-adv-x="584" 
d="M58 202v127c0 124 74 191 191 191c70 0 127 -24 160 -70l10 60h155v-67h-95v-460c0 -125 -81 -193 -213 -193c-128 0 -208 66 -208 181v1h77v-6c0 -68 49 -109 131 -109c85 0 135 43 135 121v95c-34 -41 -87 -63 -152 -63c-117 0 -191 68 -191 192zM135 334v-137
c0 -77 50 -120 131 -120c82 0 135 45 135 125v127c0 79 -53 124 -136 124c-80 0 -130 -42 -130 -119zM234 610v113h78v-113h-78z" />
    <glyph glyph-name="hbar" unicode="&#x127;" horiz-adv-x="681" 
d="M75 602v57h70v81h78v-81h134v-57h-134v-141c34 39 87 59 152 59c117 0 191 -60 191 -186v-267h95v-67h-172v339c0 79 -50 114 -130 114s-136 -40 -136 -119v-267h95v-67h-268v67h95v535h-70z" />
    <glyph glyph-name="hcircumflex" unicode="&#x125;" horiz-adv-x="681" 
d="M50 673v67h173v-279c34 39 87 59 152 59c117 0 191 -60 191 -186v-267h95v-67h-172v339c0 79 -50 114 -130 114s-136 -40 -136 -119v-267h95v-67h-268v67h95v606h-95zM229 925l113 -145h-73l-84 99l-84 -99h-71l113 145h86z" />
    <glyph glyph-name="iacute" unicode="&#xed;" horiz-adv-x="358" 
d="M191 580h-63l101 160h82zM223 510v-443h95v-67h-268v67h95v376h-95v67h173z" />
    <glyph glyph-name="ibreve" unicode="&#x12d;" horiz-adv-x="358" 
d="M223 510v-443h95v-67h-268v67h95v376h-95v67h173zM38 740h54c0 -71 23 -96 78 -96c54 0 77 25 77 96h53c0 -108 -40 -155 -130 -155c-91 0 -132 47 -132 155z" />
    <glyph glyph-name="icircumflex" unicode="&#xee;" horiz-adv-x="358" 
d="M207 740l108 -160h-72l-75 106l-75 -106h-70l108 160h76zM223 510v-443h95v-67h-268v67h95v376h-95v67h173z" />
    <glyph glyph-name="idieresis" unicode="&#xef;" horiz-adv-x="358" 
d="M53 605v108h68v-108h-68zM218 605v108h68v-108h-68zM223 510v-443h95v-67h-268v67h95v376h-95v67h173z" />
    <glyph glyph-name="dotlessi" unicode="&#x131;" horiz-adv-x="358" 
d="M223 510v-443h95v-67h-268v67h95v376h-95v67h173z" />
    <glyph glyph-name="igrave" unicode="&#xec;" horiz-adv-x="358" 
d="M223 510v-443h95v-67h-268v67h95v376h-95v67h173zM210 580h-62l-120 160h81z" />
    <glyph glyph-name="imacron" unicode="&#x12b;" horiz-adv-x="358" 
d="M53 619v57h232v-57h-232zM223 510v-443h95v-67h-268v67h95v376h-95v67h173z" />
    <glyph glyph-name="iogonek" unicode="&#x12f;" horiz-adv-x="358" 
d="M223 510v-443h95v-67h-103c-26 -34 -40 -68 -40 -99c0 -29 19 -48 54 -48c12 0 24 2 38 5v-51c-23 -8 -44 -11 -63 -11c-62 0 -103 34 -103 86c0 33 17 76 53 118h-104v67h95v376h-95v67h173zM145 610v113h78v-113h-78z" />
    <glyph glyph-name="itilde" unicode="&#x129;" horiz-adv-x="358" 
d="M223 510v-443h95v-67h-268v67h95v376h-95v67h173zM42 612l-44 26c40 77 72 99 107 99c61 0 97 -75 131 -75c17 0 33 18 61 67l43 -26c-39 -78 -72 -99 -107 -99c-60 0 -96 74 -131 74c-16 0 -33 -17 -60 -66z" />
    <glyph glyph-name="i.TRK" horiz-adv-x="358" 
d="M145 610v113h78v-113h-78zM223 510v-443h95v-67h-268v67h95v376h-95v67h173z" />
    <glyph glyph-name="jcircumflex" unicode="&#x135;" horiz-adv-x="313" 
d="M145 -39v482h-95v67h173v-541c0 -123 -33 -201 -190 -167v64c88 -18 112 12 112 95zM212 740l108 -160h-72l-75 106l-75 -106h-70l108 160h76z" />
    <glyph glyph-name="kcommaaccent" unicode="&#x137;" horiz-adv-x="659" 
d="M290 -200l10 140h72l-27 -140h-55zM634 67v-67h-138l-184 246l-89 -87v-92h90v-67h-263v67h95v606h-95v67h173v-505l208 208h-82v67h253v-67h-81l-149 -146l172 -230h90z" />
    <glyph glyph-name="lacute" unicode="&#x13a;" horiz-adv-x="358" 
d="M205 780h-68l92 145h86zM223 740v-673h95v-67h-268v67h95v606h-95v67h173z" />
    <glyph glyph-name="lcaron" unicode="&#x13e;" horiz-adv-x="358" 
d="M272 580l17 200h73l-43 -200h-47zM223 740v-673h95v-67h-268v67h95v606h-95v67h173z" />
    <glyph glyph-name="lcommaaccent" unicode="&#x13c;" horiz-adv-x="358" 
d="M143 -200l10 140h72l-27 -140h-55zM223 740v-673h95v-67h-268v67h95v606h-95v67h173z" />
    <glyph glyph-name="ldot" unicode="&#x140;" horiz-adv-x="390" 
d="M223 740v-673h95v-67h-268v67h95v606h-95v67h173zM335 329v123h88v-123h-88z" />
    <glyph glyph-name="lslash" unicode="&#x142;" horiz-adv-x="358" 
d="M223 740v-328l90 37v-68l-90 -37v-277h95v-67h-268v67h95v245l-90 -37v67l90 37v294h-95v67h173z" />
    <glyph glyph-name="nacute" unicode="&#x144;" horiz-adv-x="681" 
d="M367 580h-63l101 160h82zM50 443v67h155l10 -58c34 45 90 68 160 68c117 0 191 -60 191 -186v-267h95v-67h-172v339c0 79 -50 114 -130 114s-136 -40 -136 -119v-267h95v-67h-268v67h95v376h-95z" />
    <glyph glyph-name="napostrophe" unicode="&#x149;" horiz-adv-x="681" 
d="M145 600l10 140h72l-27 -140h-55zM50 443v67h155l10 -58c34 45 90 68 160 68c117 0 191 -60 191 -186v-267h95v-67h-172v339c0 79 -50 114 -130 114s-136 -40 -136 -119v-267h95v-67h-268v67h95v376h-95z" />
    <glyph glyph-name="ncaron" unicode="&#x148;" horiz-adv-x="681" 
d="M317 580l-108 160h72l75 -106l75 106h70l-108 -160h-76zM50 443v67h155l10 -58c34 45 90 68 160 68c117 0 191 -60 191 -186v-267h95v-67h-172v339c0 79 -50 114 -130 114s-136 -40 -136 -119v-267h95v-67h-268v67h95v376h-95z" />
    <glyph glyph-name="ncommaaccent" unicode="&#x146;" horiz-adv-x="681" 
d="M314 -200l10 140h72l-27 -140h-55zM50 443v67h155l10 -58c34 45 90 68 160 68c117 0 191 -60 191 -186v-267h95v-67h-172v339c0 79 -50 114 -130 114s-136 -40 -136 -119v-267h95v-67h-268v67h95v376h-95z" />
    <glyph glyph-name="ntilde" unicode="&#xf1;" horiz-adv-x="681" 
d="M50 443v67h155l10 -58c34 45 90 68 160 68c117 0 191 -60 191 -186v-267h95v-67h-172v339c0 79 -50 114 -130 114s-136 -40 -136 -119v-267h95v-67h-268v67h95v376h-95zM228 612l-44 26c40 77 72 99 107 99c61 0 97 -75 131 -75c17 0 33 18 61 67l43 -26
c-39 -78 -72 -99 -107 -99c-60 0 -96 74 -131 74c-16 0 -33 -17 -60 -66z" />
    <glyph glyph-name="oacute" unicode="&#xf3;" 
d="M280 580h-63l101 160h82zM479 329v-147c0 -127 -84 -192 -211 -192s-210 65 -210 192v147c0 126 83 191 211 191c126 0 210 -65 210 -191zM401 177v157c0 79 -52 119 -132 119c-81 0 -134 -40 -134 -119v-157c0 -80 53 -120 133 -120c81 0 133 40 133 120z" />
    <glyph glyph-name="obreve" unicode="&#x14f;" 
d="M479 329v-147c0 -127 -84 -192 -211 -192s-210 65 -210 192v147c0 126 83 191 211 191c126 0 210 -65 210 -191zM401 177v157c0 79 -52 119 -132 119c-81 0 -134 -40 -134 -119v-157c0 -80 53 -120 133 -120c81 0 133 40 133 120zM137 740h54c0 -71 23 -96 78 -96
c54 0 77 25 77 96h53c0 -108 -40 -155 -130 -155c-91 0 -132 47 -132 155z" />
    <glyph glyph-name="ocircumflex" unicode="&#xf4;" 
d="M306 740l108 -160h-72l-75 106l-75 -106h-70l108 160h76zM479 329v-147c0 -127 -84 -192 -211 -192s-210 65 -210 192v147c0 126 83 191 211 191c126 0 210 -65 210 -191zM401 177v157c0 79 -52 119 -132 119c-81 0 -134 -40 -134 -119v-157c0 -80 53 -120 133 -120
c81 0 133 40 133 120z" />
    <glyph glyph-name="odieresis" unicode="&#xf6;" 
d="M131 605v108h68v-108h-68zM336 605v108h68v-108h-68zM479 329v-147c0 -127 -84 -192 -211 -192s-210 65 -210 192v147c0 126 83 191 211 191c126 0 210 -65 210 -191zM401 177v157c0 79 -52 119 -132 119c-81 0 -134 -40 -134 -119v-157c0 -80 53 -120 133 -120
c81 0 133 40 133 120z" />
    <glyph glyph-name="ograve" unicode="&#xf2;" 
d="M479 329v-147c0 -127 -84 -192 -211 -192s-210 65 -210 192v147c0 126 83 191 211 191c126 0 210 -65 210 -191zM401 177v157c0 79 -52 119 -132 119c-81 0 -134 -40 -134 -119v-157c0 -80 53 -120 133 -120c81 0 133 40 133 120zM319 580h-62l-120 160h81z" />
    <glyph glyph-name="ohungarumlaut" unicode="&#x151;" 
d="M196 580h-55l92 160h74zM363 580h-60l92 160h79zM479 329v-147c0 -127 -84 -192 -211 -192s-210 65 -210 192v147c0 126 83 191 211 191c126 0 210 -65 210 -191zM401 177v157c0 79 -52 119 -132 119c-81 0 -134 -40 -134 -119v-157c0 -80 53 -120 133 -120
c81 0 133 40 133 120z" />
    <glyph glyph-name="omacron" unicode="&#x14d;" 
d="M131 619v57h272v-57h-272zM479 329v-147c0 -127 -84 -192 -211 -192s-210 65 -210 192v147c0 126 83 191 211 191c126 0 210 -65 210 -191zM401 177v157c0 79 -52 119 -132 119c-81 0 -134 -40 -134 -119v-157c0 -80 53 -120 133 -120c81 0 133 40 133 120z" />
    <glyph glyph-name="otilde" unicode="&#xf5;" 
d="M479 329v-147c0 -127 -84 -192 -211 -192s-210 65 -210 192v147c0 126 83 191 211 191c126 0 210 -65 210 -191zM401 177v157c0 79 -52 119 -132 119c-81 0 -134 -40 -134 -119v-157c0 -80 53 -120 133 -120c81 0 133 40 133 120zM141 612l-44 26c40 77 72 99 107 99
c61 0 97 -75 131 -75c17 0 33 18 61 67l43 -26c-39 -78 -72 -99 -107 -99c-60 0 -96 74 -131 74c-16 0 -33 -17 -60 -66z" />
    <glyph glyph-name="racute" unicode="&#x155;" horiz-adv-x="430" 
d="M262 580h-63l101 160h82zM50 443v67h155l11 -64c45 60 127 85 204 67v-70c-120 22 -197 -27 -197 -109v-267h95v-67h-268v67h95v376h-95z" />
    <glyph glyph-name="rcaron" unicode="&#x159;" horiz-adv-x="430" 
d="M212 580l-108 160h72l75 -106l75 106h70l-108 -160h-76zM50 443v67h155l11 -64c45 60 127 85 204 67v-70c-120 22 -197 -27 -197 -109v-267h95v-67h-268v67h95v376h-95z" />
    <glyph glyph-name="rcommaaccent" unicode="&#x157;" horiz-adv-x="430" 
d="M141 -200l10 140h72l-27 -140h-55zM50 443v67h155l11 -64c45 60 127 85 204 67v-70c-120 22 -197 -27 -197 -109v-267h95v-67h-268v67h95v376h-95z" />
    <glyph glyph-name="sacute" unicode="&#x15b;" horiz-adv-x="521" 
d="M272 580h-63l101 160h82zM459 354h-78v5c-2 65 -42 97 -121 97c-83 0 -120 -29 -120 -78c0 -51 45 -72 139 -90c113 -22 190 -52 190 -155c0 -90 -75 -143 -189 -143c-72 0 -127 17 -159 56l-8 -46h-60v156h77c0 -68 50 -101 134 -101c82 0 127 28 127 82
c0 49 -44 71 -137 89c-110 21 -191 50 -191 156c0 75 55 138 180 138c71 0 120 -21 148 -55l8 45h60v-156z" />
    <glyph glyph-name="scaron" unicode="&#x161;" horiz-adv-x="521" 
d="M222 580l-108 160h72l75 -106l75 106h70l-108 -160h-76zM459 354h-78v5c-2 65 -42 97 -121 97c-83 0 -120 -29 -120 -78c0 -51 45 -72 139 -90c113 -22 190 -52 190 -155c0 -90 -75 -143 -189 -143c-72 0 -127 17 -159 56l-8 -46h-60v156h77c0 -68 50 -101 134 -101
c82 0 127 28 127 82c0 49 -44 71 -137 89c-110 21 -191 50 -191 156c0 75 55 138 180 138c71 0 120 -21 148 -55l8 45h60v-156z" />
    <glyph glyph-name="scedilla" unicode="&#x15f;" horiz-adv-x="521" 
d="M459 354h-78v5c-2 65 -42 97 -121 97c-83 0 -120 -29 -120 -78c0 -51 45 -72 139 -90c113 -22 190 -52 190 -155c0 -90 -75 -143 -189 -143c-72 0 -127 17 -159 56l-8 -46h-60v156h77c0 -68 50 -101 134 -101c82 0 127 28 127 82c0 49 -44 71 -137 89
c-110 21 -191 50 -191 156c0 75 55 138 180 138c71 0 120 -21 148 -55l8 45h60v-156zM196 -199l-12 46c69 -7 108 -4 108 32c0 35 -39 38 -108 31l12 45c97 13 163 -11 163 -77c0 -67 -66 -91 -163 -77z" />
    <glyph glyph-name="scircumflex" unicode="&#x15d;" horiz-adv-x="521" 
d="M298 740l108 -160h-72l-75 106l-75 -106h-70l108 160h76zM459 354h-78v5c-2 65 -42 97 -121 97c-83 0 -120 -29 -120 -78c0 -51 45 -72 139 -90c113 -22 190 -52 190 -155c0 -90 -75 -143 -189 -143c-72 0 -127 17 -159 56l-8 -46h-60v156h77c0 -68 50 -101 134 -101
c82 0 127 28 127 82c0 49 -44 71 -137 89c-110 21 -191 50 -191 156c0 75 55 138 180 138c71 0 120 -21 148 -55l8 45h60v-156z" />
    <glyph glyph-name="uni0219" unicode="&#x219;" horiz-adv-x="521" 
d="M219 -200l10 140h72l-27 -140h-55zM459 354h-78v5c-2 65 -42 97 -121 97c-83 0 -120 -29 -120 -78c0 -51 45 -72 139 -90c113 -22 190 -52 190 -155c0 -90 -75 -143 -189 -143c-72 0 -127 17 -159 56l-8 -46h-60v156h77c0 -68 50 -101 134 -101c82 0 127 28 127 82
c0 49 -44 71 -137 89c-110 21 -191 50 -191 156c0 75 55 138 180 138c71 0 120 -21 148 -55l8 45h60v-156z" />
    <glyph glyph-name="tbar" unicode="&#x167;" horiz-adv-x="395" 
d="M198 443v-135h111v-57h-111v-71c0 -103 25 -133 157 -116v-64c-202 -34 -235 44 -235 187v64h-83v57h83v135h-100v67h100v170l78 23v-193h157v-67h-157z" />
    <glyph glyph-name="tcaron" unicode="&#x165;" horiz-adv-x="395" 
d="M247 580l17 200h73l-43 -200h-47zM198 443v-263c0 -103 25 -133 157 -116v-64c-202 -34 -235 44 -235 187v256h-100v67h100v170l78 23v-193h157v-67h-157z" />
    <glyph glyph-name="uni0163" unicode="&#x163;" horiz-adv-x="395" 
d="M198 443v-263c0 -103 25 -133 157 -116v-64c-202 -34 -235 44 -235 187v256h-100v67h100v170l78 23v-193h157v-67h-157zM164 -199l-12 46c69 -7 108 -4 108 32c0 35 -39 38 -108 31l12 45c97 13 163 -11 163 -77c0 -67 -66 -91 -163 -77z" />
    <glyph glyph-name="uni021B" unicode="&#x21b;" horiz-adv-x="395" 
d="M178 -200l10 140h72l-27 -140h-55zM198 443v-263c0 -103 25 -133 157 -116v-64c-202 -34 -235 44 -235 187v256h-100v67h100v170l78 23v-193h157v-67h-157z" />
    <glyph glyph-name="uacute" unicode="&#xfa;" horiz-adv-x="656" 
d="M317 580h-63l101 160h82zM20 510h173v-338c0 -80 50 -115 130 -115c81 0 136 40 136 120v266h-95v67h172v-443h95v-67h-155l-10 59c-34 -46 -90 -69 -160 -69c-116 0 -191 60 -191 187v266h-95v67z" />
    <glyph glyph-name="ubreve" unicode="&#x16d;" horiz-adv-x="656" 
d="M20 510h173v-338c0 -80 50 -115 130 -115c81 0 136 40 136 120v266h-95v67h172v-443h95v-67h-155l-10 59c-34 -46 -90 -69 -160 -69c-116 0 -191 60 -191 187v266h-95v67zM194 740h54c0 -71 23 -96 78 -96c54 0 77 25 77 96h53c0 -108 -40 -155 -130 -155
c-91 0 -132 47 -132 155z" />
    <glyph glyph-name="ucircumflex" unicode="&#xfb;" horiz-adv-x="656" 
d="M363 740l108 -160h-72l-75 106l-75 -106h-70l108 160h76zM20 510h173v-338c0 -80 50 -115 130 -115c81 0 136 40 136 120v266h-95v67h172v-443h95v-67h-155l-10 59c-34 -46 -90 -69 -160 -69c-116 0 -191 60 -191 187v266h-95v67z" />
    <glyph glyph-name="udieresis" unicode="&#xfc;" horiz-adv-x="656" 
d="M189 605v108h68v-108h-68zM394 605v108h68v-108h-68zM20 510h173v-338c0 -80 50 -115 130 -115c81 0 136 40 136 120v266h-95v67h172v-443h95v-67h-155l-10 59c-34 -46 -90 -69 -160 -69c-116 0 -191 60 -191 187v266h-95v67z" />
    <glyph glyph-name="ugrave" unicode="&#xf9;" horiz-adv-x="656" 
d="M20 510h173v-338c0 -80 50 -115 130 -115c81 0 136 40 136 120v266h-95v67h172v-443h95v-67h-155l-10 59c-34 -46 -90 -69 -160 -69c-116 0 -191 60 -191 187v266h-95v67zM396 580h-62l-120 160h81z" />
    <glyph glyph-name="uhungarumlaut" unicode="&#x171;" horiz-adv-x="656" 
d="M20 510h173v-338c0 -80 50 -115 130 -115c81 0 136 40 136 120v266h-95v67h172v-443h95v-67h-155l-10 59c-34 -46 -90 -69 -160 -69c-116 0 -191 60 -191 187v266h-95v67zM234 580h-55l92 160h74zM401 580h-60l92 160h79z" />
    <glyph glyph-name="umacron" unicode="&#x16b;" horiz-adv-x="656" 
d="M20 510h173v-338c0 -80 50 -115 130 -115c81 0 136 40 136 120v266h-95v67h172v-443h95v-67h-155l-10 59c-34 -46 -90 -69 -160 -69c-116 0 -191 60 -191 187v266h-95v67zM189 619v57h272v-57h-272z" />
    <glyph glyph-name="uogonek" unicode="&#x173;" horiz-adv-x="656" 
d="M20 510h173v-338c0 -80 50 -115 130 -115c81 0 136 40 136 120v266h-95v67h172v-443h95v-67h-95c-26 -34 -40 -68 -40 -99c0 -29 19 -48 54 -48c12 0 24 2 38 5v-51c-23 -8 -44 -11 -63 -11c-62 0 -103 34 -103 86c0 34 17 77 54 119l-10 58c-34 -46 -90 -69 -160 -69
c-116 0 -191 60 -191 187v266h-95v67z" />
    <glyph glyph-name="uring" unicode="&#x16f;" horiz-adv-x="656" 
d="M224 654c0 57 41 96 101 96s102 -39 102 -96s-42 -96 -102 -96s-101 39 -101 96zM274 654c0 -34 19 -55 51 -55s51 21 51 55s-19 55 -51 55s-51 -21 -51 -55zM20 510h173v-338c0 -80 50 -115 130 -115c81 0 136 40 136 120v266h-95v67h172v-443h95v-67h-155l-10 59
c-34 -46 -90 -69 -160 -69c-116 0 -191 60 -191 187v266h-95v67z" />
    <glyph glyph-name="utilde" unicode="&#x169;" horiz-adv-x="656" 
d="M20 510h173v-338c0 -80 50 -115 130 -115c81 0 136 40 136 120v266h-95v67h172v-443h95v-67h-155l-10 59c-34 -46 -90 -69 -160 -69c-116 0 -191 60 -191 187v266h-95v67zM198 612l-44 26c40 77 72 99 107 99c61 0 97 -75 131 -75c17 0 33 18 61 67l43 -26
c-39 -78 -72 -99 -107 -99c-60 0 -96 74 -131 74c-16 0 -33 -17 -60 -66z" />
    <glyph glyph-name="wacute" unicode="&#x1e83;" horiz-adv-x="903" 
d="M444 580h-63l101 160h82zM327 0h-87l-151 443h-74v67h245v-67h-93l119 -355l130 422h77l129 -422l119 355h-93v67h240v-67h-74l-150 -443h-87l-125 393z" />
    <glyph glyph-name="wcircumflex" unicode="&#x175;" horiz-adv-x="903" 
d="M489 740l108 -160h-72l-75 106l-75 -106h-70l108 160h76zM327 0h-87l-151 443h-74v67h245v-67h-93l119 -355l130 422h77l129 -422l119 355h-93v67h240v-67h-74l-150 -443h-87l-125 393z" />
    <glyph glyph-name="wdieresis" unicode="&#x1e85;" horiz-adv-x="903" 
d="M315 605v108h68v-108h-68zM520 605v108h68v-108h-68zM327 0h-87l-151 443h-74v67h245v-67h-93l119 -355l130 422h77l129 -422l119 355h-93v67h240v-67h-74l-150 -443h-87l-125 393z" />
    <glyph glyph-name="wgrave" unicode="&#x1e81;" horiz-adv-x="903" 
d="M327 0h-87l-151 443h-74v67h245v-67h-93l119 -355l130 422h77l129 -422l119 355h-93v67h240v-67h-74l-150 -443h-87l-125 393zM522 580h-62l-120 160h81z" />
    <glyph glyph-name="yacute" unicode="&#xfd;" horiz-adv-x="652" 
d="M150 -200v67h97l56 133h-26l-183 443h-79v67h248v-67h-88l154 -373l153 373h-88v67h243v-67h-78l-241 -576h84v-67h-252zM338 580h-63l101 160h82z" />
    <glyph glyph-name="ycircumflex" unicode="&#x177;" horiz-adv-x="652" 
d="M150 -200v67h97l56 133h-26l-183 443h-79v67h248v-67h-88l154 -373l153 373h-88v67h243v-67h-78l-241 -576h84v-67h-252zM364 740l108 -160h-72l-75 106l-75 -106h-70l108 160h76z" />
    <glyph glyph-name="ydieresis" unicode="&#xff;" horiz-adv-x="652" 
d="M150 -200v67h97l56 133h-26l-183 443h-79v67h248v-67h-88l154 -373l153 373h-88v67h243v-67h-78l-241 -576h84v-67h-252zM189 605v108h68v-108h-68zM394 605v108h68v-108h-68z" />
    <glyph glyph-name="ygrave" unicode="&#x1ef3;" horiz-adv-x="652" 
d="M150 -200v67h97l56 133h-26l-183 443h-79v67h248v-67h-88l154 -373l153 373h-88v67h243v-67h-78l-241 -576h84v-67h-252zM376 580h-62l-120 160h81z" />
    <glyph glyph-name="zacute" unicode="&#x17a;" horiz-adv-x="496" 
d="M260 580h-63l101 160h82zM40 67l320 376h-242v-99h-78v166h416v-67l-320 -376h243v99h77v-166h-416v67z" />
    <glyph glyph-name="zcaron" unicode="&#x17e;" horiz-adv-x="496" 
d="M210 580l-108 160h72l75 -106l75 106h70l-108 -160h-76zM40 67l320 376h-242v-99h-78v166h416v-67l-320 -376h243v99h77v-166h-416v67z" />
    <glyph glyph-name="zdotaccent" unicode="&#x17c;" horiz-adv-x="496" 
d="M40 67l320 376h-242v-99h-78v166h416v-67l-320 -376h243v99h77v-166h-416v67zM209 610v113h78v-113h-78z" />
    <glyph glyph-name="iacute_jacute" horiz-adv-x="670" 
d="M191 580h-63l101 160h82zM223 510v-443h95v-67h-268v67h95v376h-95v67h173zM503 -39v482h-95v67h172v-541c0 -123 -33 -201 -190 -167v64c88 -18 113 12 113 95zM548 580h-62l101 160h81z" />
    <glyph glyph-name="dollar" unicode="$" horiz-adv-x="637" 
d="M279 -120v115c-55 9 -105 31 -139 70l-10 -65h-65v213h83c2 -97 70 -151 178 -151c100 0 161 42 161 123c0 91 -69 111 -176 130c-147 26 -238 71 -238 207c0 118 78 182 206 187v111h78v-115c52 -9 100 -31 133 -69l10 64h65v-212h-83c-2 97 -63 150 -170 150
c-101 0 -154 -41 -154 -116c0 -89 67 -112 168 -130c150 -26 246 -70 246 -209c0 -124 -86 -188 -215 -193v-110h-78z" />
    <glyph glyph-name="cent" unicode="&#xa2;" horiz-adv-x="546" 
d="M496 528h-77v6c-3 70 -56 109 -143 109c-95 0 -148 -43 -148 -121v-164c0 -77 54 -121 147 -121c91 0 144 42 144 110v6h77v-1c0 -104 -67 -169 -182 -180v-112h-77v111c-119 12 -187 79 -187 192v154c0 114 72 181 187 191v112h77v-113c49 -7 88 -27 112 -59l10 52h60
v-172z" />
    <glyph glyph-name="sterling" unicode="&#xa3;" horiz-adv-x="628" 
d="M138 378v139c0 125 80 193 207 193c68 0 121 -22 152 -63l10 53h65v-210h-83v33c0 74 -51 115 -132 115c-85 0 -136 -43 -136 -121v-139h210v-62h-210v-244h357v-72h-548v72h108v244h-108v62h108z" />
    <glyph glyph-name="yen" unicode="&#xa5;" horiz-adv-x="705" 
d="M123 267v62h150l-190 299h-83v72h268v-72h-88l177 -282l178 282h-97v72h267v-72h-82l-190 -299h150v-62h-189v-195h115v-72h-312v72h115v195h-189z" />
    <glyph glyph-name="florin" unicode="&#x192;" horiz-adv-x="438" 
d="M170 44v289h-120v67h120v159c0 85 57 141 141 141h77v-67h-68c-44 0 -72 -28 -72 -72v-161h140v-67h-140v-288c0 -85 -57 -141 -141 -141h-57v67h48c44 0 72 28 72 73z" />
    <glyph glyph-name="Euro" unicode="&#x20ac;" horiz-adv-x="687" 
d="M30 320v62h70v77c0 157 99 251 260 251c88 0 156 -25 197 -78l10 68h65v-225h-83v4c0 100 -68 159 -179 159c-117 0 -187 -65 -187 -179v-77h231v-62h-231v-79c0 -114 70 -179 186 -179c112 0 180 59 180 160v3h83v-3c0 -148 -101 -232 -263 -232
c-166 0 -269 90 -269 251v79h-70z" />
    <glyph glyph-name="currency" unicode="&#xa4;" horiz-adv-x="637" 
d="M59 351c0 63 19 118 51 161l-96 97l47 47l96 -97c42 33 98 52 161 52s118 -19 160 -52l101 101l48 -47l-101 -101c33 -43 52 -98 52 -161s-19 -119 -52 -161l97 -96l-47 -47l-97 96c-43 -32 -98 -51 -161 -51s-119 18 -161 52l-99 -99l-48 47l99 99
c-32 43 -50 97 -50 160zM136 351c0 -113 75 -192 182 -192s182 79 182 192c0 114 -75 193 -182 193s-182 -79 -182 -193z" />
    <glyph glyph-name="numbersign" unicode="#" horiz-adv-x="731" 
d="M342 0l63 199h-176l-63 -199h-69l64 199h-137v63h157l56 177h-133v62h153l64 199h69l-64 -199h176l64 199h68l-64 -199h137v-62h-157l-56 -177h133v-63h-153l-64 -199h-68zM306 439l-57 -177h176l57 177h-176z" />
    <glyph glyph-name="zero" unicode="0" horiz-adv-x="622" 
d="M469 213v274c0 96 -59 151 -157 151c-100 0 -159 -55 -159 -151v-274c0 -96 59 -151 157 -151c100 0 159 55 159 151zM552 487v-274c0 -144 -92 -223 -242 -223c-148 0 -240 79 -240 223v274c0 144 92 223 242 223c148 0 240 -79 240 -223z" />
    <glyph glyph-name="one" unicode="1" horiz-adv-x="463" 
d="M50 0v72h155v544l-155 -111v84l155 111h83v-628h145v-72h-383z" />
    <glyph glyph-name="two" unicode="2" horiz-adv-x="602" 
d="M530 519c0 -73 -40 -135 -93 -188l-259 -259h364v-72h-472v72l310 307c43 42 67 91 67 138c0 78 -58 121 -145 121c-88 0 -149 -44 -149 -141v-32h-83v235h65l10 -63c42 50 106 73 174 73c120 0 211 -68 211 -191z" />
    <glyph glyph-name="three" unicode="3" horiz-adv-x="602" 
d="M527 518c0 -81 -39 -138 -111 -167c74 -26 116 -81 116 -168c0 -118 -83 -193 -233 -193s-234 75 -234 189v27h83v-19c0 -78 54 -125 151 -125s148 50 148 129s-56 124 -146 124h-56v72h56c92 0 141 51 141 123c0 79 -50 128 -145 128c-96 0 -149 -54 -149 -131v-12h-83
v205h65l10 -61c41 45 104 71 173 71c126 1 214 -73 214 -192z" />
    <glyph glyph-name="four" unicode="4" horiz-adv-x="562" 
d="M219 0v72h95v121h-284v72l224 435h87l-227 -435h200v157h82v-157h141v-72h-141v-121h95v-72h-272z" />
    <glyph glyph-name="five" unicode="5" horiz-adv-x="602" 
d="M70 192v2h83v-6c0 -80 56 -126 148 -126c93 0 149 51 149 161c0 111 -56 162 -148 162c-77 0 -122 -32 -143 -80h-80l31 395h387v-72h-322l-21 -236c44 42 99 60 160 60c123 0 218 -72 218 -230c0 -152 -88 -232 -231 -232s-231 73 -231 202z" />
    <glyph glyph-name="six" unicode="6" horiz-adv-x="607" 
d="M455 503v10c0 78 -61 125 -151 125c-95 0 -151 -49 -151 -128v-156c37 43 94 68 167 68c134 0 217 -81 217 -216c0 -133 -89 -216 -233 -216c-145 0 -234 83 -234 216v300c0 127 92 204 216 204c76 0 138 -27 176 -72l10 62h65v-197h-82zM304 355
c-95 0 -151 -56 -151 -147c0 -90 56 -146 151 -146c94 0 151 56 151 146c0 93 -54 147 -151 147z" />
    <glyph glyph-name="seven" unicode="7" horiz-adv-x="542" 
d="M119 0l302 628h-303v-128h-83v200h472v-62l-297 -638h-91z" />
    <glyph glyph-name="eight" unicode="8" horiz-adv-x="607" 
d="M532 521c0 -74 -35 -132 -100 -163c75 -29 115 -91 115 -173c0 -118 -85 -196 -243 -196s-244 76 -244 196c0 81 41 143 115 173c-64 30 -100 88 -100 163c0 115 84 189 228 189c146 0 229 -72 229 -189zM465 192c0 81 -58 130 -162 130c-103 0 -160 -50 -160 -130
s57 -130 161 -130s161 51 161 130zM450 514c0 77 -53 124 -147 124c-92 0 -145 -48 -145 -124c0 -77 53 -124 146 -124s146 48 146 124z" />
    <glyph glyph-name="nine" unicode="9" horiz-adv-x="607" 
d="M304 62c94 0 151 49 151 132v153c-38 -44 -95 -68 -167 -68c-134 0 -218 81 -218 216c0 132 89 215 234 215c144 0 233 -83 233 -215v-301c0 -124 -82 -204 -233 -204c-150 0 -234 76 -234 191v16h83v-8c0 -79 54 -127 151 -127zM304 638c-95 0 -151 -56 -151 -146
c0 -93 54 -146 151 -146c94 0 151 56 151 146s-57 146 -151 146z" />
    <glyph glyph-name="asciicircum" unicode="^" horiz-adv-x="509" 
d="M214 844h81l184 -470h-82l-144 388l-145 -388h-78z" />
    <glyph glyph-name="asciitilde" unicode="~" horiz-adv-x="512" 
d="M42 327c42 74 80 93 118 93c72 0 137 -78 191 -78c22 0 48 16 77 61c1 0 43 -27 43 -27c-42 -74 -80 -93 -118 -93c-72 0 -142 78 -196 78c-22 0 -43 -16 -72 -61z" />
    <glyph glyph-name="periodcentered" unicode="&#xb7;" horiz-adv-x="228" 
d="M70 289v123h88v-123h-88z" />
    <glyph glyph-name="plus" unicode="+" horiz-adv-x="512" 
d="M220 384v198h71v-198h191v-67h-191v-196h-71v196h-190v67h190z" />
    <glyph glyph-name="minus" unicode="&#x2212;" horiz-adv-x="512" 
d="M30 384h452v-67h-452v67z" />
    <glyph glyph-name="plusminus" unicode="&#xb1;" horiz-adv-x="512" 
d="M220 414v198h71v-198h191v-67h-191v-196h-71v196h-190v67h190zM30 67h452v-67h-452v67z" />
    <glyph glyph-name="multiply" unicode="&#xd7;" horiz-adv-x="512" 
d="M255 399l161 161l48 -47l-162 -162l158 -157l-47 -47l-158 157l-160 -159l-48 47l160 160l-156 157l47 47z" />
    <glyph glyph-name="divide" unicode="&#xf7;" horiz-adv-x="512" 
d="M30 384h452v-67h-452v67zM213 66v123h87v-123h-87zM213 513v122h87v-122h-87z" />
    <glyph glyph-name="less" unicode="&#x3c;" horiz-adv-x="512" 
d="M482 140l-452 177v68l452 177v-74l-368 -137l368 -136v-75z" />
    <glyph glyph-name="greater" unicode="&#x3e;" horiz-adv-x="512" 
d="M30 562l452 -177v-68l-452 -177v75l368 136l-368 137v74z" />
    <glyph glyph-name="lessequal" unicode="&#x2264;" horiz-adv-x="512" 
d="M482 155l-452 177v68l452 177v-74l-368 -137l368 -136v-75zM30 67h452v-67h-452v67z" />
    <glyph glyph-name="greaterequal" unicode="&#x2265;" horiz-adv-x="512" 
d="M30 577l452 -177v-68l-452 -177v75l368 136l-368 137v74zM30 67h452v-67h-452v67z" />
    <glyph glyph-name="equal" unicode="=" horiz-adv-x="512" 
d="M30 509h452v-67h-452v67zM30 259h452v-67h-452v67z" />
    <glyph glyph-name="notequal" unicode="&#x2260;" horiz-adv-x="512" 
d="M30 259h161l61 183h-222v67h244l48 145h69l-49 -145h140v-67h-162l-60 -183h222v-67h-244l-48 -144h-68l47 144h-139v67z" />
    <glyph glyph-name="approxequal" unicode="&#x2248;" horiz-adv-x="512" 
d="M42 429c42 74 80 93 118 93c72 0 137 -78 191 -78c22 0 48 16 77 61c1 0 43 -27 43 -27c-42 -74 -80 -93 -118 -93c-72 0 -142 78 -196 78c-22 0 -43 -16 -72 -61zM42 234c42 74 80 93 118 93c72 0 137 -78 191 -78c22 0 48 16 77 61c1 0 43 -27 43 -27
c-42 -74 -80 -93 -118 -93c-72 0 -142 78 -196 78c-22 0 -43 -16 -72 -61z" />
    <glyph glyph-name="logicalnot" unicode="&#xac;" horiz-adv-x="512" 
d="M30 384h452v-263h-70v196h-382v67z" />
    <glyph glyph-name="bar" unicode="|" horiz-adv-x="210" 
d="M70 -135v970h70v-970h-70z" />
    <glyph glyph-name="brokenbar" unicode="&#xa6;" horiz-adv-x="210" 
d="M70 469v366h70v-366h-70zM70 -135v366h70v-366h-70z" />
    <glyph glyph-name="infinity" unicode="&#x221e;" horiz-adv-x="618" 
d="M383 243l-74 70l-74 -70c-23 -20 -54 -43 -93 -43c-71 0 -122 47 -122 121v60c0 74 51 121 122 121c39 0 70 -23 93 -43l74 -70l74 70c23 20 54 43 93 43c71 0 122 -47 122 -121v-60c0 -74 -51 -121 -122 -121c-39 0 -70 23 -93 43zM148 265c25 0 45 16 62 31l57 55
l-57 55c-17 15 -37 31 -62 31c-39 0 -66 -28 -66 -66v-40c0 -38 27 -66 66 -66zM408 406l-57 -55l57 -55c17 -15 37 -31 62 -31c39 0 66 28 66 66v40c0 38 -27 66 -66 66c-25 0 -45 -16 -62 -31z" />
    <glyph glyph-name="partialdiff" unicode="&#x2202;" 
d="M247 480c49 0 93 -12 126 -34c-44 113 -137 200 -257 246l24 58c216 -79 339 -261 339 -499v-69c0 -127 -84 -192 -211 -192s-210 65 -210 192v107c0 126 78 191 189 191zM401 177v104c0 88 -46 132 -132 132c-81 0 -134 -40 -134 -119v-117c0 -80 53 -120 133 -120
c81 0 133 40 133 120z" />
    <glyph glyph-name="uni00B5" unicode="&#xb5;" horiz-adv-x="561" 
d="M491 510v-510h-60l-10 59c-34 -46 -90 -69 -160 -69c-45 0 -83 9 -113 26v-216h-78v710h78v-338c0 -80 50 -115 130 -115s136 40 136 120v333h77z" />
    <glyph glyph-name="pi" unicode="&#x3c0;" 
d="M148 443v-443h-78v443h-70v67h536v-67h-70v-443h-77v443h-241z" />
    <glyph glyph-name="uni2206" unicode="&#x2206;" horiz-adv-x="618" 
d="M360 700l258 -700h-618l259 700h101zM308 611l-201 -539h401z" />
    <glyph glyph-name="product" unicode="&#x220f;" horiz-adv-x="792" 
d="M647 628v-628h-83v628h-336v-628h-83v628h-95v72h692v-72h-95z" />
    <glyph glyph-name="summation" unicode="&#x2211;" horiz-adv-x="637" 
d="M514 490v138h-346l187 -256v-44l-187 -256h346v138h83v-210h-527v72l204 278l-204 278v72h527v-210h-83z" />
    <glyph glyph-name="uni2126" unicode="&#x2126;" horiz-adv-x="662" 
d="M331 638c-118 0 -188 -65 -188 -179v-165c0 -55 16 -99 47 -129l94 -93v-72h-268v72h174l-68 70c-40 42 -61 101 -61 176v141c0 162 102 251 270 251s271 -89 271 -251v-141c0 -75 -22 -134 -62 -176l-67 -70h174v-72h-269v72l94 93c31 30 47 74 47 129v165
c0 114 -70 179 -188 179z" />
    <glyph glyph-name="radical" unicode="&#x221a;" horiz-adv-x="613" 
d="M259 0l-170 453h-89v67h147l161 -433l226 613h79l-258 -700h-96z" />
    <glyph glyph-name="integral" unicode="&#x222b;" horiz-adv-x="338" 
d="M70 -61l115 660c15 85 82 141 166 141h77l-12 -67h-68c-44 0 -77 -28 -85 -72l-115 -660c-15 -85 -82 -141 -166 -141h-77l12 67h67c45 0 78 28 86 72z" />
    <glyph glyph-name="emptyset" unicode="&#x2205;" horiz-adv-x="637" 
d="M59 351c0 153 106 260 259 260c63 0 118 -19 160 -52l101 101l48 -47l-101 -101c32 -42 52 -97 52 -161c0 -153 -107 -259 -260 -259c-63 0 -119 18 -161 52l-99 -99l-48 47l99 99c-32 43 -50 97 -50 160zM500 351c0 41 -13 76 -33 102l-258 -257c28 -24 65 -37 109 -37
c107 0 182 79 182 192zM136 351c0 -40 12 -75 32 -101l258 257c-28 23 -66 37 -108 37c-107 0 -182 -79 -182 -193z" />
    <glyph glyph-name="degree" unicode="&#xb0;" horiz-adv-x="323" 
d="M25 574c0 80 56 136 137 136c80 0 136 -56 136 -136c0 -81 -56 -137 -136 -137c-81 0 -137 56 -137 137zM77 574c0 -51 35 -85 85 -85s84 34 84 85c0 50 -34 85 -84 85s-85 -35 -85 -85z" />
    <glyph glyph-name="ordfeminine" unicode="&#xaa;" horiz-adv-x="367" 
d="M31 475c0 66 45 98 114 98c41 0 74 -12 94 -35v61c0 42 -25 61 -66 61c-43 0 -65 -16 -65 -54h-62c0 69 45 104 127 104c78 0 128 -38 128 -115v-158h52v-54h-100l-10 35c-19 -27 -54 -41 -99 -41c-68 0 -113 32 -113 98zM93 477c0 -34 25 -50 71 -50c42 0 72 17 75 45v9
c-3 29 -33 46 -75 46c-46 0 -71 -15 -71 -50z" />
    <glyph glyph-name="ordmasculine" unicode="&#xba;" horiz-adv-x="360" 
d="M315 587v-87c0 -82 -53 -123 -135 -123c-81 0 -135 41 -135 123v87c0 82 54 123 135 123c82 0 135 -41 135 -123zM253 497v93c0 44 -29 66 -73 66s-73 -22 -73 -66v-93c0 -43 29 -66 73 -66s73 23 73 66z" />
    <glyph glyph-name="quotesingle" unicode="'" horiz-adv-x="228" 
d="M80 423l-10 277h88l-10 -277h-68z" />
    <glyph glyph-name="quotedbl" unicode="&#x22;" horiz-adv-x="365" 
d="M80 423l-10 277h88l-10 -277h-68zM218 423l-10 277h87l-10 -277h-67z" />
    <glyph glyph-name="underscore" unicode="_" horiz-adv-x="510" 
d="M505 -67h-500v57h500v-57z" />
    <glyph glyph-name="emdash" unicode="&#x2014;" horiz-adv-x="1010" 
d="M5 222v67h1000v-67h-1000z" />
    <glyph glyph-name="endash" unicode="&#x2013;" horiz-adv-x="510" 
d="M5 222v67h500v-67h-500z" />
    <glyph glyph-name="hyphen" unicode="-" horiz-adv-x="259" 
d="M30 222v67h199v-67h-199z" />
    <glyph glyph-name="uni00AD" unicode="&#xad;" horiz-adv-x="259" 
d="M30 222v67h199v-67h-199z" />
    <glyph glyph-name="guilsinglleft" unicode="&#x2039;" horiz-adv-x="257" 
d="M227 66l-207 160v68l207 160v-79l-140 -115l140 -113v-81z" />
    <glyph glyph-name="guilsinglright" unicode="&#x203a;" horiz-adv-x="257" 
d="M25 454l207 -160v-68l-207 -160v80l141 114l-141 114v80z" />
    <glyph glyph-name="guillemotleft" unicode="&#xab;" horiz-adv-x="436" 
d="M227 66l-207 160v68l207 160v-79l-140 -115l140 -113v-81zM406 66l-207 160v68l207 160v-79l-141 -115l141 -113v-81z" />
    <glyph glyph-name="guillemotright" unicode="&#xbb;" horiz-adv-x="436" 
d="M209 454l207 -160v-68l-207 -160v80l140 114l-140 114v80zM30 454l207 -160v-68l-207 -160v80l141 114l-141 114v80z" />
    <glyph glyph-name="quotesinglbase" unicode="&#x201a;" horiz-adv-x="228" 
d="M70 -115v238h88l-30 -238h-58z" />
    <glyph glyph-name="quotedblbase" unicode="&#x201e;" horiz-adv-x="365" 
d="M70 -115v238h88l-30 -238h-58zM208 -115v238h87l-30 -238h-57z" />
    <glyph glyph-name="quoteright" unicode="&#x2019;" horiz-adv-x="228" 
d="M70 560v238h88l-30 -238h-58z" />
    <glyph glyph-name="quotedblright" unicode="&#x201d;" horiz-adv-x="365" 
d="M70 560v238h88l-30 -238h-58zM208 560v238h87l-30 -238h-57z" />
    <glyph glyph-name="quoteleft" unicode="&#x2018;" horiz-adv-x="228" 
d="M158 798v-238h-88l30 238h58z" />
    <glyph glyph-name="quotedblleft" unicode="&#x201c;" horiz-adv-x="365" 
d="M295 798v-238h-87l30 238h57zM158 798v-238h-88l30 238h58z" />
    <glyph glyph-name="comma" unicode="," horiz-adv-x="228" 
d="M65 -115l10 238h88l-40 -238h-58z" />
    <glyph glyph-name="period" unicode="." horiz-adv-x="228" 
d="M70 0v123h88v-123h-88z" />
    <glyph glyph-name="colon" unicode=":" horiz-adv-x="228" 
d="M70 0v123h88v-123h-88zM70 398v122h88v-122h-88z" />
    <glyph glyph-name="semicolon" unicode=";" horiz-adv-x="228" 
d="M70 398v122h88v-122h-88zM65 -115l10 238h88l-40 -238h-58z" />
    <glyph glyph-name="ellipsis" unicode="&#x2026;" horiz-adv-x="863" 
d="M70 0v123h88v-123h-88zM388 0v123h87v-123h-87zM705 0v123h88v-123h-88z" />
    <glyph glyph-name="question" unicode="?" horiz-adv-x="627" 
d="M274 384h39c104 0 166 50 166 130s-62 129 -166 129c-103 0 -165 -49 -165 -129v-24h-78v24c0 121 93 196 243 196c151 0 244 -75 244 -196c0 -112 -78 -183 -205 -194v-125h-78v189zM352 113v-113h-78v113h78z" />
    <glyph glyph-name="questiondown" unicode="&#xbf;" horiz-adv-x="627" 
d="M353 136h-39c-104 0 -166 -49 -166 -129c0 -81 62 -130 166 -130c103 0 165 49 165 130v23h78v-23c0 -122 -93 -197 -243 -197c-151 0 -244 75 -244 197c0 111 78 182 205 193v125h78v-189zM275 408v112h78v-112h-78z" />
    <glyph glyph-name="exclam" unicode="!" horiz-adv-x="258" 
d="M168 700v-505h-78v505h78zM168 113v-113h-78v113h78z" />
    <glyph glyph-name="exclamdown" unicode="&#xa1;" horiz-adv-x="258" 
d="M90 -190v505h78v-505h-78zM90 398v112h78v-112h-78z" />
    <glyph glyph-name="parenleft" unicode="(" horiz-adv-x="292" 
d="M292 -112h-79c-95 115 -158 268 -158 461c0 194 63 348 158 463h79c-96 -120 -159 -278 -159 -463c0 -182 63 -342 159 -461z" />
    <glyph glyph-name="parenright" unicode=")" horiz-adv-x="292" 
d="M0 812h79c95 -114 158 -267 158 -460c0 -195 -63 -348 -158 -464h-79c96 120 159 279 159 464c0 182 -63 341 -159 460z" />
    <glyph glyph-name="bracketleft" unicode="[" horiz-adv-x="297" 
d="M277 812v-72h-124v-780h124v-72h-207v924h207z" />
    <glyph glyph-name="bracketright" unicode="]" horiz-adv-x="297" 
d="M20 -112v72h125v780h-125v72h207v-924h-207z" />
    <glyph glyph-name="braceleft" unicode="{" horiz-adv-x="337" 
d="M110 37v197c0 48 -30 80 -78 80h-32v72h32c48 0 78 33 78 81v196c0 90 60 149 148 149h59v-72h-44c-49 0 -81 -31 -81 -80v-174c0 -66 -33 -115 -85 -136c52 -20 85 -70 85 -135v-174c0 -50 32 -81 81 -81h44v-72h-59c-88 0 -148 60 -148 149z" />
    <glyph glyph-name="braceright" unicode="}" horiz-adv-x="337" 
d="M227 663v-196c0 -49 30 -81 78 -81h32v-72h-32c-48 0 -78 -32 -78 -80v-197c0 -90 -60 -149 -148 -149h-59v72h44c49 0 81 31 81 81v174c0 65 33 115 85 135c-52 21 -85 70 -85 136v174c0 49 -32 80 -81 80h-44v72h59c88 0 148 -60 148 -149z" />
    <glyph glyph-name="slash" unicode="/" horiz-adv-x="311" 
d="M-32 -112l306 924h69l-306 -924h-69z" />
    <glyph glyph-name="backslash" unicode="\" horiz-adv-x="311" 
d="M37 812l306 -924h-68l-307 924h69z" />
    <glyph glyph-name="fraction" unicode="&#x2044;" horiz-adv-x="592" 
d="M20 0l482 700h70l-482 -700h-70z" />
    <glyph glyph-name="asterisk" unicode="*" horiz-adv-x="460" 
d="M30 589l18 55l160 -60l-7 173h57l-6 -172l160 59l18 -54l-164 -47l106 -134l-46 -33l-96 143l-96 -143l-46 33l105 134z" />
    <glyph glyph-name="bullet" unicode="&#x2022;" horiz-adv-x="304" 
d="M35 350c0 69 48 117 117 117s117 -48 117 -117s-48 -117 -117 -117s-117 48 -117 117z" />
    <glyph glyph-name="section" unicode="&#xa7;" horiz-adv-x="621" 
d="M561 243c0 -59 -22 -104 -61 -139c39 -27 61 -67 61 -127c0 -119 -90 -187 -248 -187s-248 70 -248 211v9h82v-9c0 -92 58 -139 166 -139s163 41 163 110c0 65 -42 85 -109 98l-132 25c-112 21 -175 65 -175 162c0 59 21 104 61 139c-39 27 -61 66 -61 127
c0 119 90 187 249 187c158 0 248 -70 248 -211v-9h-83v9c0 92 -57 139 -165 139c-109 0 -164 -41 -164 -110c0 -65 42 -85 109 -97l133 -25c112 -21 174 -66 174 -163zM366 330l-132 25c-17 3 -33 6 -48 11c-28 -27 -41 -59 -41 -96c0 -63 43 -87 110 -100l133 -25
c16 -3 32 -7 47 -11c27 26 41 59 41 96c0 63 -43 87 -110 100z" />
    <glyph glyph-name="dagger" unicode="&#x2020;" horiz-adv-x="539" 
d="M311 -60h-83l10 475l-218 -10v72l218 -10l-10 233h83l-10 -233l218 10v-72l-218 10z" />
    <glyph glyph-name="daggerdbl" unicode="&#x2021;" horiz-adv-x="539" 
d="M228 320l10 130l-218 -10v72l218 -10l-10 198h83l-10 -198l218 10v-72l-218 10l10 -130l-10 -129l218 10v-72l-218 10l10 -199h-83l10 199l-218 -10v72l218 -10z" />
    <glyph glyph-name="paragraph" unicode="&#xb6;" horiz-adv-x="526" 
d="M456 700v-700h-73v628h-62v-628h-73v374h-50c-103 0 -168 51 -168 164c0 112 66 162 168 162h258z" />
    <glyph glyph-name="copyright" unicode="&#xa9;" horiz-adv-x="880" 
d="M135 350c0 -188 121 -310 305 -310c185 0 305 122 305 310c0 189 -120 311 -305 311c-184 0 -305 -122 -305 -311zM80 350c0 218 142 360 360 360s360 -142 360 -360s-142 -360 -360 -360s-360 142 -360 360zM553 292h55v-13c0 -90 -64 -142 -167 -142
c-105 0 -169 54 -169 151v125c0 97 64 150 170 150c102 0 166 -51 166 -141v-8h-55v8c0 60 -41 93 -111 93c-74 0 -115 -35 -115 -102v-125c0 -67 41 -102 114 -102c71 0 112 33 112 93v13z" />
    <glyph glyph-name="uni2117" unicode="&#x2117;" horiz-adv-x="880" 
d="M135 350c0 -188 121 -310 305 -310c185 0 305 122 305 310c0 189 -120 311 -305 311c-184 0 -305 -122 -305 -311zM80 350c0 218 142 360 360 360s360 -142 360 -360s-142 -360 -360 -360s-360 142 -360 360zM292 144v412h197c87 0 144 -43 144 -140s-57 -142 -144 -142
h-142v-130h-55zM347 508v-185h139c55 0 92 26 92 93c0 66 -37 92 -92 92h-139z" />
    <glyph glyph-name="registered" unicode="&#xae;" horiz-adv-x="366" 
d="M30 547c0 93 60 153 153 153s153 -60 153 -153s-60 -153 -153 -153s-153 60 -153 153zM56 547c0 -79 50 -129 127 -129s127 50 127 129s-50 130 -127 130s-127 -51 -127 -130zM251 580c0 -30 -13 -48 -35 -54l34 -67h-33l-32 64h-37v-64h-29v176h75c35 0 57 -17 57 -55z
M222 579c0 21 -12 30 -29 30h-45v-60h45c17 0 29 9 29 30z" />
    <glyph glyph-name="trademark" unicode="&#x2122;" horiz-adv-x="590" 
d="M25 652v48h229v-48h-87v-214h-54v214h-88zM484 438v173l-75 -130l-75 130v-173h-52v262h50l77 -132l76 132h50v-262h-51z" />
    <glyph glyph-name="at" unicode="@" horiz-adv-x="1039" 
d="M298 192l24 138c22 124 100 190 217 190c72 0 127 -25 154 -73l22 63h60l-64 -367c-9 -49 14 -77 55 -77c91 0 151 161 151 286c0 180 -119 293 -316 293c-265 0 -479 -194 -479 -490c0 -181 118 -294 317 -294c80 0 156 19 223 53l25 -63c-75 -36 -159 -56 -248 -56
c-244 0 -389 138 -389 359c0 334 247 556 551 556c243 0 388 -138 388 -358c0 -187 -95 -352 -230 -352c-59 0 -104 25 -120 76c-41 -56 -105 -86 -183 -86c-118 0 -180 78 -158 202zM400 335l-26 -148c-14 -78 29 -130 105 -130c82 0 148 51 163 135l23 132
c14 79 -38 129 -120 129c-81 0 -131 -42 -145 -118z" />
    <glyph glyph-name="ampersand" unicode="&#x26;" horiz-adv-x="650" 
d="M457 500v17c0 74 -56 121 -149 121c-95 0 -148 -49 -148 -128c0 -72 50 -123 141 -123h349v-72h-110v-315h-62l-13 74c-38 -52 -105 -84 -189 -84c-132 0 -211 78 -211 186c0 84 44 145 120 176c-74 29 -110 89 -110 171c0 117 88 187 215 187c76 0 138 -21 176 -60l9 50
h65v-200h-83zM296 62c97 0 161 57 161 135v118h-158c-90 0 -149 -50 -149 -130c0 -79 52 -123 146 -123z" />
    <glyph glyph-name="emdash.case" horiz-adv-x="1010" 
d="M5 317v67h1000v-67h-1000z" />
    <glyph glyph-name="endash.case" horiz-adv-x="510" 
d="M5 317v67h500v-67h-500z" />
    <glyph glyph-name="hyphen.case" horiz-adv-x="259" 
d="M30 317v67h199v-67h-199z" />
    <glyph glyph-name="guilsinglleft.case" horiz-adv-x="257" 
d="M227 156l-207 160v68l207 160v-79l-140 -115l140 -113v-81z" />
    <glyph glyph-name="guilsinglright.case" horiz-adv-x="257" 
d="M25 544l207 -160v-68l-207 -160v80l141 114l-141 114v80z" />
    <glyph glyph-name="guillemotleft.case" horiz-adv-x="436" 
d="M227 156l-207 160v68l207 160v-79l-140 -115l140 -113v-81zM406 156l-207 160v68l207 160v-79l-141 -115l141 -113v-81z" />
    <glyph glyph-name="guillemotright.case" horiz-adv-x="436" 
d="M209 544l207 -160v-68l-207 -160v80l140 114l-140 114v80zM30 544l207 -160v-68l-207 -160v80l141 114l-141 114v80z" />
    <glyph glyph-name="questiondown.case" horiz-adv-x="627" 
d="M353 316h-39c-104 0 -166 -49 -166 -129s62 -130 166 -130c103 0 165 50 165 130v23h78v-23c0 -121 -93 -197 -243 -197c-151 0 -244 76 -244 197c0 111 78 182 205 193v125h78v-189zM275 588v112h78v-112h-78z" />
    <glyph glyph-name="exclamdown.case" horiz-adv-x="258" 
d="M90 0v505h78v-505h-78zM90 588v112h78v-112h-78z" />
    <glyph glyph-name="at.case" horiz-adv-x="1039" 
d="M298 292l24 138c22 124 100 190 217 190c72 0 127 -25 154 -73l22 63h60l-64 -367c-9 -49 14 -77 55 -77c91 0 151 161 151 286c0 180 -119 293 -316 293c-265 0 -479 -194 -479 -490c0 -181 118 -294 317 -294c80 0 156 19 223 53l25 -63c-75 -36 -159 -56 -248 -56
c-244 0 -389 138 -389 359c0 334 247 556 551 556c243 0 388 -138 388 -358c0 -187 -95 -352 -230 -352c-59 0 -104 25 -120 76c-41 -56 -105 -86 -183 -86c-118 0 -180 78 -158 202zM400 435l-26 -148c-14 -78 29 -130 105 -130c82 0 148 51 163 135l23 132
c14 79 -38 129 -120 129c-81 0 -131 -42 -145 -118z" />
    <glyph glyph-name="onesuperior" unicode="&#xb9;" horiz-adv-x="292" 
d="M50 332v54h78v252l-78 -56v62l78 56h61v-314h73v-54h-212z" />
    <glyph glyph-name="twosuperior" unicode="&#xb2;" horiz-adv-x="377" 
d="M311 602c0 -43 -23 -80 -65 -112l-106 -104h175v-54h-255v54l158 149c21 19 32 41 32 62c0 35 -25 55 -64 55c-37 0 -64 -21 -64 -64v-13h-62v125h48l8 -30c22 24 54 35 87 35c66 0 108 -35 108 -103z" />
    <glyph glyph-name="threesuperior" unicode="&#xb3;" horiz-adv-x="389" 
d="M317 604c0 -44 -22 -73 -61 -87c40 -14 63 -44 63 -88c0 -61 -44 -102 -126 -102s-128 41 -128 102v18h60v-11c0 -34 24 -55 66 -55s65 22 65 56c0 35 -23 57 -66 57h-20v45h20c43 0 64 24 64 57c0 34 -23 56 -64 56c-39 0 -63 -23 -65 -54v-12h-60v115h48l7 -30
c21 24 52 35 88 35c65 0 109 -37 109 -102z" />
    <glyph glyph-name="onequarter" unicode="&#xbc;" horiz-adv-x="774" 
d="M68 332v53h77v252l-77 -55v62l77 56h62v-315h72v-53h-211zM553 0v49h47v53h-145v53l108 213h65l-112 -213h84v63l61 10v-73h67v-53h-67v-53h46v-49h-154zM108 0l482 700h69l-482 -700h-69z" />
    <glyph glyph-name="onehalf" unicode="&#xbd;" horiz-adv-x="797" 
d="M734 270c0 -43 -24 -80 -65 -112l-106 -104h174v-54h-254v54l158 149c21 19 32 41 32 62c0 35 -26 55 -64 55s-65 -21 -65 -64v-13h-61v125h48l7 -30c22 25 54 35 87 35c67 0 109 -35 109 -103zM108 0l482 700h69l-482 -700h-69zM68 332v53h77v252l-77 -55v62l77 56h62
v-315h72v-53h-211z" />
    <glyph glyph-name="threequarters" unicode="&#xbe;" horiz-adv-x="811" 
d="M317 604c0 -44 -22 -73 -61 -87c40 -14 63 -44 63 -88c0 -61 -44 -102 -126 -102s-128 41 -128 102v18h60v-11c0 -34 24 -55 66 -55s65 22 65 56c0 35 -23 57 -66 57h-20v45h20c43 0 64 24 64 57c0 34 -23 56 -64 56c-39 0 -63 -23 -65 -54v-12h-60v115h48l7 -30
c21 24 52 35 88 35c65 0 109 -37 109 -102zM145 0l482 700h69l-482 -700h-69zM590 0v49h47v53h-145v53l108 213h65l-112 -213h84v63l61 10v-73h67v-53h-67v-53h46v-49h-154z" />
    <glyph glyph-name="onethird" unicode="&#x2153;" horiz-adv-x="592" 
d="M20 0l482 700h70l-482 -700h-70z" />
    <glyph glyph-name="percent" unicode="%" horiz-adv-x="824" 
d="M136 0l482 700h70l-482 -700h-70zM332 585v-137c0 -79 -51 -121 -131 -121s-131 42 -131 121v137c0 78 51 120 131 120s131 -42 131 -120zM271 448v137c0 43 -26 67 -70 67c-43 0 -69 -24 -69 -67v-137c0 -43 26 -67 69 -67c44 0 70 24 70 67zM754 253v-137
c0 -79 -51 -121 -131 -121s-131 42 -131 121v137c0 78 51 120 131 120s131 -42 131 -120zM692 116v137c0 43 -26 67 -69 67c-44 0 -70 -24 -70 -67v-137c0 -43 26 -67 70 -67c43 0 69 24 69 67z" />
    <glyph glyph-name="perthousand" unicode="&#x2030;" horiz-adv-x="1156" 
d="M136 0l482 700h70l-482 -700h-70zM332 585v-137c0 -79 -51 -121 -131 -121s-131 42 -131 121v137c0 78 51 120 131 120s131 -42 131 -120zM271 448v137c0 43 -26 67 -70 67c-43 0 -69 -24 -69 -67v-137c0 -43 26 -67 69 -67c44 0 70 24 70 67zM754 253v-137
c0 -79 -51 -121 -131 -121s-131 42 -131 121v137c0 78 51 120 131 120s131 -42 131 -120zM692 116v137c0 43 -26 67 -69 67c-44 0 -70 -24 -70 -67v-137c0 -43 26 -67 70 -67c43 0 69 24 69 67zM1086 253v-137c0 -79 -51 -121 -131 -121s-131 42 -131 121v137
c0 78 51 120 131 120s131 -42 131 -120zM1024 116v137c0 43 -26 67 -69 67c-44 0 -70 -24 -70 -67v-137c0 -43 26 -67 70 -67c43 0 69 24 69 67z" />
    <glyph glyph-name="acute" unicode="&#xb4;" horiz-adv-x="222" 
d="M83 580h-63l101 160h82z" />
    <glyph glyph-name="breve" unicode="&#x2d8;" horiz-adv-x="302" 
d="M20 740h54c0 -71 23 -96 78 -96c54 0 77 25 77 96h53c0 -108 -40 -155 -130 -155c-91 0 -132 47 -132 155z" />
    <glyph glyph-name="caron" unicode="&#x2c7;" horiz-adv-x="332" 
d="M128 580l-108 160h72l75 -106l75 106h70l-108 -160h-76z" />
    <glyph glyph-name="caron.salt" horiz-adv-x="130" 
d="M20 580l17 200h73l-43 -200h-47z" />
    <glyph glyph-name="cedilla" unicode="&#xb8;" horiz-adv-x="215" 
d="M32 -199l-12 46c69 -7 108 -4 108 32c0 35 -39 38 -108 31l12 45c97 13 163 -11 163 -77c0 -67 -66 -91 -163 -77z" />
    <glyph glyph-name="circumflex" unicode="&#x2c6;" horiz-adv-x="332" 
d="M204 740l108 -160h-72l-75 106l-75 -106h-70l108 160h76z" />
    <glyph glyph-name="commaaccent" horiz-adv-x="122" 
d="M20 -200l10 140h72l-27 -140h-55z" />
    <glyph glyph-name="dieresis" unicode="&#xa8;" horiz-adv-x="323" 
d="M20 605v108h68v-108h-68zM225 605v108h68v-108h-68z" />
    <glyph glyph-name="dotaccent" unicode="&#x2d9;" horiz-adv-x="118" 
d="M20 610v113h78v-113h-78z" />
    <glyph glyph-name="grave" unicode="`" horiz-adv-x="222" 
d="M202 580h-62l-120 160h81z" />
    <glyph glyph-name="hungarumlaut" unicode="&#x2dd;" horiz-adv-x="373" 
d="M75 580h-55l92 160h74zM242 580h-60l92 160h79z" />
    <glyph glyph-name="macron" unicode="&#xaf;" horiz-adv-x="312" 
d="M20 619v57h272v-57h-272z" />
    <glyph glyph-name="ogonek" unicode="&#x2db;" horiz-adv-x="216" 
d="M76 3l58 -3c-26 -34 -40 -68 -40 -99c0 -29 19 -48 54 -48c12 0 24 2 38 5v-51c-23 -8 -44 -11 -63 -11c-62 0 -103 34 -103 86c0 34 18 78 56 121z" />
    <glyph glyph-name="ring" unicode="&#x2da;" horiz-adv-x="232" 
d="M15 654c0 57 41 96 101 96s102 -39 102 -96s-42 -96 -102 -96s-101 39 -101 96zM65 654c0 -34 19 -55 51 -55s51 21 51 55s-19 55 -51 55s-51 -21 -51 -55z" />
    <glyph glyph-name="tilde" unicode="&#x2dc;" horiz-adv-x="382" 
d="M64 612l-44 26c40 77 72 99 107 99c61 0 97 -75 131 -75c17 0 33 18 61 67l43 -26c-39 -78 -72 -99 -107 -99c-60 0 -96 74 -131 74c-16 0 -33 -17 -60 -66z" />
    <glyph glyph-name="acute.case" horiz-adv-x="218" 
d="M88 740h-68l92 145h86z" />
    <glyph glyph-name="breve.case" horiz-adv-x="322" 
d="M20 885h54c0 -66 33 -89 88 -89c54 0 86 23 86 89h54c0 -103 -50 -147 -140 -147c-91 0 -142 44 -142 147z" />
    <glyph glyph-name="caron.case" horiz-adv-x="352" 
d="M133 740l-113 145h73l84 -98l84 98h71l-113 -145h-86z" />
    <glyph glyph-name="circumflex.case" horiz-adv-x="352" 
d="M219 885l113 -145h-73l-84 99l-84 -99h-71l113 145h86z" />
    <glyph glyph-name="dieresis.case" horiz-adv-x="343" 
d="M20 758v107h68v-107h-68zM255 758v107h68v-107h-68z" />
    <glyph glyph-name="dotaccent.case" horiz-adv-x="118" 
d="M20 755v113h78v-113h-78z" />
    <glyph glyph-name="grave.case" horiz-adv-x="218" 
d="M198 740h-67l-110 145h86z" />
    <glyph glyph-name="hungarumlaut.case" horiz-adv-x="424" 
d="M83 740h-63l101 145h82zM284 740h-63l101 145h82z" />
    <glyph glyph-name="macron.case" horiz-adv-x="342" 
d="M20 774v57h302v-57h-302z" />
    <glyph glyph-name="ring.case" horiz-adv-x="232" 
d="M15 814c0 57 41 96 101 96s102 -39 102 -96s-42 -96 -102 -96s-101 39 -101 96zM65 814c0 -34 19 -55 51 -55s51 21 51 55s-19 55 -51 55s-51 -21 -51 -55z" />
    <glyph glyph-name="tilde.case" horiz-adv-x="407" 
d="M64 757l-44 26c40 77 75 99 110 99c60 0 114 -75 151 -75c16 0 35 18 63 67l43 -26c-39 -78 -75 -99 -108 -99c-61 0 -115 74 -151 74c-19 0 -37 -17 -64 -66z" />
    <glyph glyph-name="arrowleft" unicode="&#x2190;" horiz-adv-x="680" 
d="M660 221h-494l227 -225l-55 -54l-318 318l318 318l55 -54l-227 -225h494v-78z" />
    <glyph glyph-name="arrowright" unicode="&#x2192;" horiz-adv-x="680" 
d="M20 299h494l-227 225l55 54l318 -318l-318 -318l-55 54l227 225h-494v78z" />
    <glyph glyph-name="arrowup" unicode="&#x2191;" horiz-adv-x="676" 
d="M299 0v494l-224 -227l-55 55l318 318l318 -318l-54 -55l-225 227v-494h-78z" />
    <glyph glyph-name="arrowdown" unicode="&#x2193;" horiz-adv-x="676" 
d="M377 630v-494l225 227l54 -55l-318 -318l-318 318l55 55l224 -227v494h78z" />
    <glyph glyph-name="uni2196" unicode="&#x2196;" horiz-adv-x="520" 
d="M445 79l-349 349l2 -319l-78 1v449h449l1 -78l-319 2l349 -349z" />
    <glyph glyph-name="uni2197" unicode="&#x2197;" horiz-adv-x="520" 
d="M425 428l-350 -349l-55 55l350 349l-319 -2v78h449v-449l-77 -1z" />
    <glyph glyph-name="uni2198" unicode="&#x2198;" horiz-adv-x="520" 
d="M75 480l350 -349l-2 319l77 -1v-449h-449v78l319 -2l-350 349z" />
    <glyph glyph-name="uni2199" unicode="&#x2199;" horiz-adv-x="520" 
d="M96 131l349 349l55 -55l-349 -349l319 2l-1 -78h-449v449l78 1z" />
    <glyph glyph-name="arrowleft.case" horiz-adv-x="760" 
d="M740 311h-574l280 -277l-55 -55l-371 371l371 371l55 -54l-280 -278h574v-78z" />
    <glyph glyph-name="arrowright.case" horiz-adv-x="760" 
d="M20 389h574l-280 278l55 54l371 -371l-371 -371l-55 55l280 277h-574v78z" />
    <glyph glyph-name="arrowup.case" horiz-adv-x="782" 
d="M352 0v574l-277 -280l-55 55l371 371l371 -371l-54 -55l-278 280v-574h-78z" />
    <glyph glyph-name="arrowdown.case" horiz-adv-x="782" 
d="M430 700v-574l278 280l54 -55l-371 -371l-371 371l55 55l277 -280v574h78z" />
    <glyph glyph-name="uni2196.case" horiz-adv-x="583" 
d="M502 163l-406 406l2 -394h-78v525h525l1 -77l-395 1l406 -406z" />
    <glyph glyph-name="uni2198.case" horiz-adv-x="583" 
d="M487 569l-406 -406l-55 55l406 406l-394 -1v77h525v-525h-77z" />
    <glyph glyph-name="uni2197.case" horiz-adv-x="583" 
d="M81 537l406 -406l-1 395l77 -1v-525h-525v78l394 -2l-406 406z" />
    <glyph glyph-name="uni2199.case" horiz-adv-x="583" 
d="M96 131l406 406l55 -55l-406 -406l395 2l-1 -78h-525v525l78 1z" />
    </font>
</defs>
</svg>
