<?xml version="1.0" standalone="no"?>
<!DOCTYPE svg PUBLIC "-//W3C//DTD SVG 20010904//EN"
 "http://www.w3.org/TR/2001/REC-SVG-20010904/DTD/svg10.dtd">
<svg version="1.0" xmlns="http://www.w3.org/2000/svg"
 width="732.000000pt" height="732.000000pt" viewBox="0 0 732.000000 732.000000"
 preserveAspectRatio="xMidYMid meet">
<metadata>
Created by potrace 1.11, written by Peter Selinger 2001-2013
</metadata>
<g transform="translate(0.000000,732.000000) scale(0.100000,-0.100000)"
fill="#000000" stroke="none">
<path d="M2698 7254 c-2 -2 -119 -47 -259 -100 -140 -53 -378 -143 -529 -201
-151 -57 -345 -130 -430 -162 -85 -33 -166 -64 -180 -69 -14 -6 -61 -24 -105
-40 -44 -16 -89 -33 -100 -37 -11 -5 -22 -9 -25 -10 -3 -1 -16 -6 -30 -12 -14
-6 -65 -25 -113 -43 -48 -18 -89 -36 -91 -39 -2 -3 -7 -37 -11 -74 -3 -37 -8
-76 -10 -85 -1 -9 -6 -44 -9 -77 -4 -33 -8 -71 -11 -85 -2 -14 -7 -46 -10 -72
-10 -88 -16 -143 -20 -164 -2 -12 -7 -48 -10 -80 -4 -33 -9 -66 -10 -74 -2 -8
-6 -45 -10 -83 -4 -37 -12 -71 -19 -75 -6 -4 -36 -7 -66 -8 -30 -1 -63 -2 -73
-3 -16 -1 -17 -19 -15 -273 l3 -273 35 -3 c19 -2 38 -6 41 -10 4 -4 10 -38 14
-75 3 -37 8 -76 10 -85 1 -9 6 -46 10 -82 3 -36 8 -76 10 -90 2 -14 7 -50 10
-80 3 -30 8 -66 10 -80 2 -14 7 -53 10 -88 4 -35 8 -71 10 -80 1 -9 6 -46 9
-82 4 -36 9 -76 11 -90 2 -14 7 -50 10 -80 3 -30 7 -64 9 -75 2 -12 7 -51 10
-87 4 -37 8 -75 10 -85 2 -10 7 -48 10 -84 4 -36 9 -76 11 -90 2 -13 7 -49 9
-79 3 -30 8 -71 11 -90 3 -19 7 -53 9 -75 5 -49 16 -140 21 -175 2 -14 9 -70
15 -125 6 -55 12 -112 15 -125 3 -22 18 -148 30 -255 9 -89 15 -139 30 -262 9
-70 18 -139 20 -153 2 -14 7 -53 10 -88 4 -35 8 -72 10 -82 2 -10 7 -50 10
-87 4 -37 9 -75 10 -83 1 -8 6 -44 10 -80 3 -36 8 -76 10 -90 2 -14 6 -50 10
-80 3 -30 10 -89 15 -130 5 -41 12 -97 15 -125 3 -27 7 -67 10 -87 15 -114 18
-138 30 -253 3 -27 8 -61 10 -75 2 -14 7 -54 11 -90 3 -36 7 -72 9 -80 1 -8 6
-49 11 -90 4 -41 8 -77 9 -80 1 -3 5 -39 9 -80 5 -41 10 -82 11 -90 2 -8 6
-44 10 -80 3 -36 8 -76 10 -90 3 -14 7 -49 9 -77 3 -29 8 -65 10 -80 3 -16 7
-55 11 -88 9 -100 17 -149 27 -167 8 -17 111 -18 1948 -18 l1938 0 54 71 c29
40 58 79 63 88 6 9 13 18 16 21 3 3 194 257 424 565 230 308 421 565 425 570
7 9 11 28 25 150 4 28 8 62 11 78 2 15 7 51 9 80 3 28 7 63 10 77 2 14 7 54
11 90 3 36 8 74 10 84 2 11 6 42 9 70 6 56 11 100 20 161 3 22 7 61 10 88 3
26 7 60 9 75 3 15 7 52 11 82 3 30 8 66 10 80 3 14 7 50 10 80 3 30 8 69 10
85 3 17 7 50 9 75 3 25 7 59 10 75 4 29 10 74 22 173 7 63 24 201 29 232 2 14
7 54 10 90 4 36 9 72 10 80 1 8 6 44 10 80 4 36 9 72 10 80 2 8 6 44 10 80 3
36 8 72 10 80 2 8 7 44 10 80 3 36 8 72 10 80 2 8 6 42 10 75 3 33 7 71 10 85
2 14 7 52 10 85 3 33 8 67 10 75 2 8 6 46 10 83 3 37 8 77 10 89 3 11 7 46 10
77 4 31 8 66 10 79 2 13 7 53 11 90 3 37 8 70 10 73 1 3 6 37 9 75 3 38 8 80
10 94 3 14 7 48 10 75 3 28 10 82 15 120 15 115 19 146 30 240 13 114 19 161
25 205 3 19 8 53 10 75 5 42 11 92 21 173 8 70 11 75 51 97 l38 20 3 273 c3
293 3 289 -47 262 -22 -11 -8 -51 -160 463 -59 202 -110 370 -113 373 -3 2
-216 7 -474 9 -258 3 -680 7 -939 10 -2075 22 -2323 24 -2327 19z"/>
</g>
</svg>
