<svg xmlns="http://www.w3.org/2000/svg" viewBox="0 0 24.81 37.18"><defs><style>.cls-1{fill:#e6e7e8;}.cls-2{fill:#bcbec0;}.cls-3{fill:#db9035;}.cls-4{fill:#a7a9ac;}</style></defs><title>Asset 21</title><g id="Layer_2" data-name="Layer 2"><g id="Layer_1-2" data-name="Layer 1"><rect class="cls-1" width="24.81" height="37.18" rx="1.39" ry="1.39"/><rect class="cls-2" x="2.72" y="3.17" width="19.2" height="8.2" rx="1.01" ry="1.01"/><rect class="cls-3" x="2.72" y="15.85" width="3.83" height="3.63"/><rect class="cls-2" x="7.77" y="15.85" width="3.83" height="3.63"/><rect class="cls-2" x="12.77" y="15.85" width="3.83" height="3.63"/><rect class="cls-2" x="17.88" y="15.85" width="3.83" height="3.63"/><rect class="cls-2" x="2.72" y="20.57" width="3.83" height="3.63"/><rect class="cls-2" x="7.77" y="20.57" width="3.83" height="3.63"/><rect class="cls-2" x="12.77" y="20.57" width="3.83" height="3.63"/><rect class="cls-2" x="17.88" y="20.57" width="3.83" height="3.63"/><rect class="cls-2" x="2.72" y="25.38" width="3.83" height="3.63"/><rect class="cls-2" x="2.72" y="30.18" width="3.83" height="3.63"/><rect class="cls-2" x="7.74" y="30.18" width="3.83" height="3.63"/><rect class="cls-2" x="7.77" y="25.38" width="3.83" height="3.63"/><rect class="cls-2" x="12.77" y="25.38" width="3.83" height="3.63"/><rect class="cls-2" x="17.88" y="25.38" width="3.83" height="3.63"/><rect class="cls-2" x="12.77" y="30.18" width="8.94" height="3.63"/><path class="cls-4" d="M18.91,9.92H17.58a.74.74,0,0,1-.74-.74V5.32a.74.74,0,0,1,.74-.73h1.33a.74.74,0,0,1,.74.73V9.18A.74.74,0,0,1,18.91,9.92Zm-1.26-.8h1.19V5.39H17.65Z"/></g></g></svg>