<svg xmlns="http://www.w3.org/2000/svg" viewBox="0 0 40.6 32.96"><defs><style>.cls-1{fill:#e6e7e8;}.cls-2{fill:#a7a9ac;}.cls-3{fill:#27aae1;}</style></defs><title>Asset 20</title><g id="Layer_2" data-name="Layer 2"><g id="Layer_1-2" data-name="Layer 1"><rect class="cls-1" x="1.18" y="1.55" width="38.23" height="29.85" transform="translate(1.45 -1.64) rotate(4.81)"/><rect class="cls-2" x="20.39" y="1.16" width="1.03" height="16.18" transform="translate(9.94 29.31) rotate(-85.19)"/><rect class="cls-2" x="20.22" y="3.84" width="0.52" height="21.04" transform="translate(4.46 33.56) rotate(-85.19)"/><rect class="cls-2" x="20.05" y="8.29" width="0.52" height="16.18" transform="translate(2.29 35.24) rotate(-85.19)"/><rect class="cls-2" x="21.1" y="-7.71" width="0.26" height="26.21" transform="translate(14.07 26.11) rotate(-85.19)"/><rect class="cls-2" x="19.92" y="5.23" width="0.26" height="26.21" transform="translate(0.1 36.78) rotate(-85.19)"/><rect class="cls-2" x="19.8" y="6.63" width="0.26" height="26.21" transform="translate(-1.41 37.95) rotate(-85.19)"/><rect class="cls-2" x="28.44" y="22.14" width="0.26" height="5.99" transform="translate(1.14 51.5) rotate(-85.19)"/><path class="cls-3" d="M21.55,28.86a3.8,3.8,0,1,1,3.73-2.09A3.78,3.78,0,0,1,21.55,28.86ZM22.14,22a3.13,3.13,0,1,0,2.54,4.52h0A3.13,3.13,0,0,0,22.14,22Z"/><path class="cls-3" d="M21.43,27.35a1.65,1.65,0,0,1-.6-.17A1.68,1.68,0,0,1,20,25.24l0,0,1.19-2.4,3,1.49L22.93,26.7h0A1.69,1.69,0,0,1,21.43,27.35Zm-.72-2.19,0,.08a1,1,0,0,0,1.79.89l.76-1.52-1.79-.89Z"/><path class="cls-2" d="M36.93,31.37l-35.24-3L3.93,1.7l35.24,3ZM2,28.17l34.73,2.92L38.89,4.9,4.16,2Z"/></g></g></svg>