<svg xmlns="http://www.w3.org/2000/svg" viewBox="0 0 32.56 32.56"><defs><style>.cls-1{fill:#e6e7e8;}.cls-2,.cls-3{fill:none;}.cls-2{stroke:#bcbec0;stroke-width:0.5px;}.cls-2,.cls-3,.cls-4{stroke-miterlimit:10;}.cls-3,.cls-4{stroke:#939598;}.cls-4{fill:#6d6e71;}</style></defs><title>Asset 19</title><g id="Layer_2" data-name="Layer 2"><g id="Layer_1-2" data-name="Layer 1"><circle class="cls-1" cx="16.28" cy="16.28" r="16.28"/><line class="cls-2" x1="1.29" y1="16.51" x2="3.85" y2="16.47"/><line class="cls-2" x1="3.43" y1="24.03" x2="5.61" y2="22.71"/><line class="cls-2" x1="8.85" y1="29.33" x2="10.12" y2="27.11"/><line class="cls-2" x1="16.42" y1="31.28" x2="16.39" y2="28.73"/><line class="cls-2" x1="23.95" y1="29.15" x2="22.63" y2="26.96"/><line class="cls-2" x1="29.25" y1="23.72" x2="27.03" y2="22.46"/><line class="cls-2" x1="31.2" y1="16.15" x2="28.65" y2="16.18"/><line class="cls-2" x1="29.07" y1="8.62" x2="26.88" y2="9.94"/><line class="cls-2" x1="23.64" y1="3.33" x2="22.37" y2="5.54"/><line class="cls-2" x1="16.07" y1="1.37" x2="16.1" y2="3.93"/><line class="cls-2" x1="8.54" y1="3.51" x2="9.86" y2="5.69"/><line class="cls-2" x1="3.24" y1="8.93" x2="5.46" y2="10.2"/><line class="cls-2" x1="1.29" y1="16.51" x2="3.85" y2="16.47"/><line class="cls-3" x1="16.17" y1="19.52" x2="16.17" y2="5.41"/><circle class="cls-4" cx="16.22" cy="16.56" r="0.77" transform="translate(-6.96 16.32) rotate(-45)"/><line class="cls-3" x1="18.26" y1="15.35" x2="10.45" y2="20.25"/></g></g></svg>