<!-- Generator: Adobe Illustrator 21.1.0, SVG Export Plug-In  -->
<svg version="1.1"
	 xmlns="http://www.w3.org/2000/svg" xmlns:xlink="http://www.w3.org/1999/xlink" xmlns:a="http://ns.adobe.com/AdobeSVGViewerExtensions/3.0/"
	 x="0px" y="0px" width="89.718px" height="89.718px" viewBox="0 0 89.718 89.718"
	 style="enable-background:new 0 0 89.718 89.718;" xml:space="preserve">
<style type="text/css">
	.st0{fill:#0F183F;}
</style>
<defs>
</defs>
<path class="st0" d="M81.344,0H8.373C3.749,0,0,3.749,0,8.374v72.971c0,4.625,3.749,8.373,8.373,8.373h39.649V50.714H39.97V37.278
	h8.052v-8.071c0-10.968,4.543-17.489,17.462-17.489h10.751v13.444h-6.72c-5.03,0-5.361,1.881-5.361,5.382l-0.021,6.734h12.177
	l-1.427,13.436h-10.75v39.003h17.21c4.625,0,8.374-3.749,8.374-8.373V8.374C89.718,3.749,85.969,0,81.344,0z"/>
</svg>