<svg xmlns="http://www.w3.org/2000/svg" viewBox="0 0 13.96 13.96"><defs><style>.cls-1{fill:#0f183f;}</style></defs><title>Asset 15</title><g id="Layer_2" data-name="Layer 2"><g id="Layer_1-2" data-name="Layer 1"><path class="cls-1" d="M11.71,0H2.25A2.24,2.24,0,0,0,0,2.25v9.46A2.24,2.24,0,0,0,2.25,14h9.46A2.24,2.24,0,0,0,14,11.71V2.25A2.24,2.24,0,0,0,11.71,0ZM9.25,2.08a.51.51,0,0,1,.51-.51h2.12a.51.51,0,0,1,.51.51V4.2a.51.51,0,0,1-.51.51H9.76a.51.51,0,0,1-.51-.51ZM7,4.32A2.83,2.83,0,1,1,4.14,7.16,2.82,2.82,0,0,1,7,4.32Zm5.81,7.19A1.51,1.51,0,0,1,11.28,13H2.67a1.51,1.51,0,0,1-1.51-1.51V6H3.1a4,4,0,1,0,7.74,0h2Z"/></g></g></svg>