<!-- Generator: Adobe Illustrator 21.1.0, SVG Export Plug-In  -->
<svg version="1.1"
	 xmlns="http://www.w3.org/2000/svg" xmlns:xlink="http://www.w3.org/1999/xlink" xmlns:a="http://ns.adobe.com/AdobeSVGViewerExtensions/3.0/"
	 x="0px" y="0px" width="1439.879px" height="11.157px" viewBox="0 0 1439.879 11.157"
	 style="enable-background:new 0 0 1439.879 11.157;" xml:space="preserve">
<style type="text/css">
	.st0{fill:#0F183F;}
</style>
<defs>
</defs>
<g>
	<polygon class="st0" points="719.557,11.157 726.994,0 712.119,0 	"/>
	<polygon class="st0" points="742.513,11.157 749.951,0 735.075,0 	"/>
	<polygon class="st0" points="811.874,11.157 819.312,0 804.436,0 	"/>
	<polygon class="st0" points="765.961,11.157 773.399,0 758.523,0 	"/>
	<polygon class="st0" points="788.917,11.157 796.355,0 781.48,0 	"/>
	<polygon class="st0" points="834.831,11.157 842.269,0 827.393,0 	"/>
	<polygon class="st0" points="857.787,11.157 865.225,0 850.349,0 	"/>
	<polygon class="st0" points="880.744,11.157 888.182,0 873.306,0 	"/>
	<polygon class="st0" points="903.701,11.157 911.139,0 896.263,0 	"/>
	<polygon class="st0" points="926.658,11.157 934.096,0 919.22,0 	"/>
	<polygon class="st0" points="949.614,11.157 957.052,0 942.176,0 	"/>
	<polygon class="st0" points="1041.441,11.157 1048.879,0 1034.003,0 	"/>
	<polygon class="st0" points="972.571,11.157 980.009,0 965.133,0 	"/>
	<polygon class="st0" points="995.528,11.157 1002.966,0 988.09,0 	"/>
	<polygon class="st0" points="1018.484,11.157 1025.922,0 1011.046,0 	"/>
	<polygon class="st0" points="1057.205,0 1056.96,0 1064.397,11.157 1064.52,10.973 1064.643,11.157 1072.081,0 1071.836,0 	"/>
	<polygon class="st0" points="1087.6,11.157 1095.038,0 1080.162,0 	"/>
	<polygon class="st0" points="1110.557,11.157 1117.995,0 1103.118,0 	"/>
	<polygon class="st0" points="1179.917,11.157 1187.356,0 1172.479,0 	"/>
	<polygon class="st0" points="1134.004,11.157 1141.442,0 1126.566,0 	"/>
	<polygon class="st0" points="1156.961,11.157 1164.399,0 1149.523,0 	"/>
	<polygon class="st0" points="1202.874,11.157 1210.312,0 1195.436,0 	"/>
	<polygon class="st0" points="1225.831,11.157 1233.269,0 1218.393,0 	"/>
	<polygon class="st0" points="1248.787,11.157 1256.226,0 1241.35,0 	"/>
	<polygon class="st0" points="1271.744,11.157 1279.182,0 1264.306,0 	"/>
	<polygon class="st0" points="1294.701,11.157 1302.139,0 1287.263,0 	"/>
	<polygon class="st0" points="1317.657,11.157 1325.096,0 1310.22,0 	"/>
	<polygon class="st0" points="1409.484,11.157 1416.922,0 1402.046,0 	"/>
	<polygon class="st0" points="1340.614,11.157 1348.052,0 1333.176,0 	"/>
	<polygon class="st0" points="1363.571,11.157 1371.009,0 1356.133,0 	"/>
	<polygon class="st0" points="1386.528,11.157 1393.966,0 1379.09,0 	"/>
	<polygon class="st0" points="1425.003,0 1432.441,11.157 1439.879,0 	"/>
	<polygon class="st0" points="444.077,11.157 451.514,0 436.638,0 	"/>
	<polygon class="st0" points="398.163,11.157 405.601,0 390.725,0 	"/>
	<polygon class="st0" points="421.12,11.157 428.558,0 413.682,0 	"/>
	<polygon class="st0" points="467.033,11.157 474.471,0 459.595,0 	"/>
	<polygon class="st0" points="489.99,11.157 497.428,0 482.552,0 	"/>
	<polygon class="st0" points="512.946,11.157 520.384,0 505.508,0 	"/>
	<polygon class="st0" points="535.903,11.157 543.341,0 528.465,0 	"/>
	<polygon class="st0" points="558.86,11.157 566.298,0 551.422,0 	"/>
	<polygon class="st0" points="581.816,11.157 589.255,0 574.378,0 	"/>
	<polygon class="st0" points="237.005,11.157 244.443,0 229.567,0 	"/>
	<polygon class="st0" points="191.091,11.157 198.529,0 183.653,0 	"/>
	<polygon class="st0" points="214.048,11.157 221.486,0 206.61,0 	"/>
	<polygon class="st0" points="259.961,11.157 267.399,0 252.523,0 	"/>
	<polygon class="st0" points="282.918,11.157 290.356,0 275.48,0 	"/>
	<polygon class="st0" points="305.875,11.157 313.313,0 298.437,0 	"/>
	<polygon class="st0" points="328.831,11.157 336.269,0 321.393,0 	"/>
	<polygon class="st0" points="351.788,11.157 359.226,0 344.35,0 	"/>
	<polygon class="st0" points="367.307,0 367.277,0 374.716,11.157 374.73,11.135 374.745,11.157 382.183,0 382.153,0 	"/>
	<polygon class="st0" points="30.394,11.157 37.833,0 22.956,0 	"/>
	<polygon class="st0" points="7.438,11.157 14.876,0 0,0 	"/>
	<polygon class="st0" points="53.351,11.157 60.789,0 45.913,0 	"/>
	<polygon class="st0" points="76.308,11.157 83.746,0 68.87,0 	"/>
	<polygon class="st0" points="99.265,11.157 106.703,0 91.827,0 	"/>
	<polygon class="st0" points="122.221,11.157 129.659,0 114.783,0 	"/>
	<polygon class="st0" points="145.178,11.157 152.616,0 137.74,0 	"/>
	<polygon class="st0" points="160.697,0 160.206,0 167.644,11.157 167.889,10.789 168.135,11.157 175.572,0 175.082,0 	"/>
	<polygon class="st0" points="673.643,11.157 681.081,0 666.205,0 	"/>
	<polygon class="st0" points="604.773,11.157 612.211,0 597.335,0 	"/>
	<polygon class="st0" points="627.73,11.157 635.168,0 620.292,0 	"/>
	<polygon class="st0" points="650.687,11.157 658.125,0 643.249,0 	"/>
	<polygon class="st0" points="689.162,0 696.6,11.157 704.038,0 704.038,0 	"/>
</g>
</svg>