<svg xmlns="http://www.w3.org/2000/svg" viewBox="0 0 148.77 172.74"><defs><style>.cls-1{fill:#d1d3d4;}.cls-2{fill:#bcbec0;}.cls-3{fill:#e6e7e8;}.cls-4{fill:#939598;}.cls-5{fill:#a7a9ac;}.cls-6{fill:#2e3192;}.cls-7{fill:#fff200;}.cls-8{fill:#ed1c24;}.cls-9{fill:#414042;}.cls-10{fill:#fff;}</style></defs><title>Asset 1</title><g id="Layer_2" data-name="Layer 2"><g id="Layer_1-2" data-name="Layer 1"><path class="cls-1" d="M115.46,50.69a.5.5,0,0,0-.36-.15H2.46a.5.5,0,0,0-.5.56L16.41,172.3a.5.5,0,0,0,.5.44h92.71a.5.5,0,0,0,.5-.48l5.48-121.2A.5.5,0,0,0,115.46,50.69Z"/><path class="cls-2" d="M146.65,33.36a.5.5,0,0,0-.52,0L114.85,50.6a.5.5,0,0,0-.26.42l-5.48,121.2a.5.5,0,0,0,.33.49l.17,0a.5.5,0,0,0,.4-.2l23.5-31.41a.51.51,0,0,0,.1-.24L146.87,33.83A.5.5,0,0,0,146.65,33.36Z"/><path class="cls-1" d="M140.7,1.41"/><path class="cls-3" d="M141.18,1.28a.5.5,0,0,0-.48-.37L51.87,0a.66.66,0,0,0-.18,0L6.89,17a.5.5,0,0,0,.18,1H112.89a.5.5,0,0,0,.25-.07l27.81-16A.5.5,0,0,0,141.18,1.28Z"/><path class="cls-4" d="M98.54,9.08H56.18c-.46,0-.83.28-.83.62s.37.62.83.62H98.54c.46,0,.83-.28.83-.62S99,9.08,98.54,9.08Z"/><path class="cls-1" d="M113.38,17.37a.5.5,0,0,0-.5-.45H7.07a.5.5,0,0,0-.5.44L3.86,38.71a.5.5,0,0,0,.5.56H115.09a.5.5,0,0,0,.5-.55Z"/><rect class="cls-2" y="38.28" width="115.59" height="13.26" rx="0.5" ry="0.5"/><path class="cls-2" d="M147.29,21.9,141.18,1.27a.5.5,0,0,0-.29-.32.49.49,0,0,0-.43,0L112.64,17a.5.5,0,0,0-.25.49l2.21,21.35a.5.5,0,0,0,.26.39.49.49,0,0,0,.24.06.51.51,0,0,0,.23-.06L147,22.49A.5.5,0,0,0,147.29,21.9Z"/><path class="cls-5" d="M148.53,20.85a.5.5,0,0,0-.49,0l-33.18,17.5a.5.5,0,0,0-.27.44V51a.5.5,0,0,0,.73.44L148.47,34a.5.5,0,0,0,.27-.44l0-12.33A.5.5,0,0,0,148.53,20.85Z"/><rect class="cls-6" x="60.35" y="74.11" width="24.86" height="29.29"/><polygon class="cls-7" points="60.35 133.69 60.08 133.41 59.78 133.14 59.45 132.92 59.1 132.73 58.72 132.6 58.35 132.5 57.95 132.46 40.64 132.46 40.13 132.44 39.62 132.37 39.12 132.24 38.65 132.06 38.18 131.84 37.75 131.59 37.34 131.28 36.95 130.93 36.62 130.57 36.31 130.16 36.04 129.72 35.83 129.26 35.65 128.77 35.52 128.28 35.46 127.78 35.43 127.26 35.43 103.39 60.35 103.39 60.35 133.69"/><polygon class="cls-8" points="60.35 103.39 35.43 103.39 35.44 74.11 60.35 74.11 60.35 103.39"/><polygon class="cls-8" points="60.35 133.72 60.35 103.39 85.21 103.39 85.21 127.26 85.18 127.78 85.1 128.28 85 128.77 84.82 129.26 84.59 129.72 84.33 130.16 84.04 130.57 83.69 130.93 83.32 131.28 82.9 131.59 82.47 131.84 82 132.06 81.53 132.24 81.03 132.37 80.53 132.44 80.01 132.46 62.91 132.46 62.54 132.49 62.17 132.55 61.83 132.65 61.48 132.81 61.16 132.99 60.86 133.2 60.58 133.45 60.35 133.72"/><circle class="cls-9" cx="47.89" cy="118.54" r="8.49"/><path class="cls-8" d="M64.29,88.75a8.49,8.49,0,0,1,8.49-8.49v8.49H64.29"/><path class="cls-10" d="M64.29,88.75a8.49,8.49,0,0,0,8.49,8.49V88.75Z"/><path class="cls-8" d="M81.28,88.75a8.49,8.49,0,0,1-8.49,8.49V88.75h8.49"/><path class="cls-10" d="M81.28,88.75a8.49,8.49,0,0,0-8.49-8.49v8.49Z"/><circle class="cls-10" cx="72.78" cy="118.54" r="8.49"/><circle class="cls-10" cx="47.89" cy="88.75" r="8.49"/></g></g></svg>